<mxfile host="app.diagrams.net" modified="2022-04-27T01:37:47.352Z" agent="5.0 (Windows NT 10.0; Win64; x64) AppleWebKit/537.36 (KHTML, like Gecko) Chrome/99.0.4844.51 Safari/537.36 Edg/99.0.1150.39" etag="PUc9krovLHR3A-696tcA" version="17.4.6" type="github">
  <diagram id="1gL7o-28RpsXj_Nw149T" name="第 1 页">
    <mxGraphModel dx="2249" dy="762" grid="1" gridSize="10" guides="1" tooltips="1" connect="1" arrows="1" fold="1" page="1" pageScale="1" pageWidth="827" pageHeight="1169" math="0" shadow="0">
      <root>
        <mxCell id="0" />
        <mxCell id="1" parent="0" />
        <mxCell id="Yf7TfXyYbvZEHfJDqa2y-1" value="" style="shape=image;verticalLabelPosition=bottom;labelBackgroundColor=default;verticalAlign=top;aspect=fixed;imageAspect=0;image=data:image/png,iVBORw0KGgoAAAANSUhEUgAABDsAAALxCAYAAABSEK3KAAAgAElEQVR4nOzdf3SU5Z3//1d+MiQZHVAMAUqJKWIB0+qgbWO3HoqVrBtIN7Ua2yI5CPRoN1rchV2Ph7QfOFS37DaGWXdbqDkg9SeYmooeoljAH6y1TLdibHelOAohQFEyMiaMSWbm+wdn5pvJzCSZcTIz953n4xzPIXPfr/u63s5EwzvXfd1ZgUAgoCg8Ho+sVmu0Q0NKNNfZ2akpU6akbDzqS26O+pI7HvUlN0d9yR2P+pKbo77kjkd9yc1RX3LHo77k5qgvueNRX3Jz1Jfc8RLJZcc9CgAAAAAAQAaj2QEAAAAAAEyFZgcAAAAAADAVmh0AAAAAAMBUaHYAAAAAAABTodkBAAAAAABMJevs2bNRHz2baok+gsYoqM/YqM/YqM/YqM/YqM/YqM/YqM/YqM/YqC/9cmNN0CjP9yVHjhw5cuTIkSNHjhw5cuTIkRuI21gAAAAAAICp0OwAAAAAAACmQrMDAAAAAACYCs0OAAAAAABgKjQ7AAAAAACAqdDsAAAAAAAApkKzAwAAAAAAmArNDgAAAAAAYCo0OwAAAAAAgKnQ7AAAAAAAAKZCswMAAAAAAJgKzQ4AAAAAAGAqWWfPng2kexKS5PF4ZLVa0z2NUUN9xkZ9xkZ9xkZ9xkZ9xkZ9xkZ9xkZ9xkZ96Zcba4KJTp4cOXLkyJEjR44cOXLkyJEjRy6dOW5jAQAAAAAApkKzAwAAAAAAmArNDgAAAAAAYCq56Z4AAACjob+/X7/+9a914MABdXR0qK+vb0Q5v9+v7Oz4fxeQaK6/v1+5ufH/7zjV8wzm8vLyNGPGDF111VVavHixxo0bF/e1AAAARhvNDgCA6fT29mr58uV67733JElFRUXKz89P86zMobe3V++8845eeOEFPfXUU3r88ccTatYAAACMJn46AQCYzmOPPab33ntPxcXFeuCBB1ReXp7uKZlKe3u71qxZo3fffVc7duzQrbfemu4pAQAAhGHPDgCA6Rw8eFCS1NTURKNjFMydO1eNjY2SpFdeeSXNswEAAIhEswMAYDonT56U1WrVzJkz0z0V05o1a5asVqtOnTqV7qkAAABEoNkBADAdr9eroqKidE/D9IqKivTJJ5+kexoAAAARaHYAAAAAAABTodkBAAAAAABMhWYHAAAAAAAwlayzZ88G0j0JSfJ4PLJaremexqihPmOjPmOjPmNLpL5bbrlF2dnZ2rVr1yjNCpJUVVUlv9+vJ598MuY5fD6NjfqMjfqMjfqMjfrSLzfWBBOdPDly5MiRI5fuXHY2CxdTJTs7e8j3xwifF3LkyJEjR46c+XL8NAgAAAAAAEyFZgcAAAAAADAVmh0AAAAAAMBUaHYAAAAAAABTodkBAAAAAABMhWYHAAAAAAAwFZodAAAAAADAVGh2AAAAAAAAU8lN9wQAABjO2bNndcEFF4za9VtbW7Vu3bphz/ve976nDz74QLt37444tmnTJr388suqra3VmTNn1NHRoerqajkcDm3dunXYa2/evFl2uz3idafTqY6ODpWXl6uxsVHr1q2TzWYLHZMku90ul8ul+vp6nThxIuIaJSUlcjgcKi0tjbh2S0uL1q5dK4vFMuwcAQAAjIJmBwAg4/3gBz+QzWbTN77xDV177bW66KKLkj7GwGaD2+3W9u3btWLFiqhNgGuuuUaStHDhQjU2Nqq2tlYlJSV6+eWXI86tr69XfX196GuXy6UnnnhCq1atiqvBUFpaqqVLl2rjxo2h5sScOXPU2NioiRMnqrS0VLt27QrNf+PGjVq9enWoMeL1enXfffdFbdQMfq2yspIGCAAAMDSaHQCAjOf3+3XgwAEdOHBAknT11VfrhhtuUEVFhSZPnpy0cZxOp1auXBn6euCKjEQaAG63W3fffbfa29sjju3cuTPs67q6Ok2fPj3mCpOBr+/evVt1dXWqr6/XHXfcEWpW7N27V8uWLQvLeb1eNTY2qqamRpMnT9ZLL70UaoDEmvP27dtHXCMAAEAmotkBADCc3//+9/r9738vSfrCF76ghQsX6tprr9W0adM+9bWDTYSBgg2A//mf/9E//MM/hF4PNiB27typa6+9VlarNeJ68+bN0y9+8YtQkyTayg6Xy6W9e/equrpa1dXVYfngbSyDXw+y2Wyqra2VJB06dEhOp1NlZWWh421tbZo9e7ZmzZqlWbNmRdQ1eAWIzWaLqB8AAMBoso4fPx6IdsBqtcrj8cR9wURziUr1PKkvuagvM3KJor7MyEnS6tWrdfbs2bgy2dnZ8vv9cY+V6pwk/fWvf1V/f/+w55WWlmrBggX69a9/rfz8/NBtHcNpbW0NNUoGruwYaODKDofDoYqKitBtJMHbWIJ/HrhnR/D6wcbI6tWr5XK5JJ1vkgzeT6O1tVVHjx4NNRycTqc2bdqkpqYm2Wy2ULNk2bJlWrNmjdrb20O34ASbMt/+9rflcDi0YsUKPfvss6Hbcbxer9avXx/1VpZodQ6nqqpKPp9PDz/88Ij+PcfDSN9/iaC+zMglivoyI5co6suMXKKoLzNyiUrlPHOnTJkS9YDH41GsY0NJNNfZ2ZnS8agvuTnqS+541Jfc3Fio7//+7/80adKkuHKBQEBZWVlxj5fqnM/nG/G5/f396u7uTmicoKFWdkjnV2EcPnxYS5YsCTvHYrHo3nvvlSSdOXMm7Fi0FRuSQucPPtfpdMrhcITm0d7erv3792vatGn60Y9+JIfDoeLiYm3btk2tra2hbHBVhtvtDvt6oIG3sgxe2ZHILSw5OTlDfm7HwvefEeZJfdFRX3LHo77k5qgvueNRX3JzRqiP21gAwCSmTZumLVu2jPh8j8cT9baLTMt1dnZq9erV+t///d+ox8vKylRRUaEbb7xRl112mSRp3759cY3x4Ycfqry8XGfOnNHWrVujPj2lsrJSXq83dAuKzWaT1+sNO2fgCo7NmzeP+CkvUvgTU+x2u+x2e2gPkR/84AdqaWnRtGnTtHPnzohVF7E2Hx34dV1dnVasWKGTJ09qwYIFMc+rrKwc0XwBAAAyGc0OAIDhzJo1SxUVFVq0aJE++9nPfqpreb1enTp1StL5R7i+9NJLslgsOnHihJ544gndcccdkhTa02LgagyLxaI77rgj9OSWwSs47HZ7xIqO4C0z0R4zGxTc2HTevHnavHmzOjo69OMf/1j19fV6++23I7IWi0UbNmzQhg0bQvnBe3EEa032yg4AAIBMRLMDAJDxsrKyNHv2bH31q1/V4sWLVVJSkrRre71effzxx5owYYK8Xq82btyompoaTZw4UZLU1dWlX/7yl1q+fLlKS0vlcrlUX1+vEydOhF1n8GqQ4D4ag5/wEs3cuXNDe3K0traqpaUl9LXT6ZR0fj+S4K0twcbKQHv27FFZWVlo749YWNkBAADGApodAICMt2nTplDzIdn279+vyZMny2azyeFwqKamRna7PbSJaElJiVavXq2GhgatWrVKpaWlYRufBldDBDcBjaahoUHV1dVhqzqam5s1f/58lZSUhG4/cjgcmj59urZt2xb1OsGxHQ5H2J4eK1euVENDw7CNDin5e3YAAABkIpodAICMN1qNDun8fh1VVVWhRkNZWZmWLl2q9vZ2NTQ0yGKxyGKxaNWqVfrVr36lZ555Jup1ou3zsXnz5iHH/t3vfqeNGzdq7ty5WrJkSdhmooP3/xho4HlHjx4NrSIZjsViGfKxsjx2FgAAmAXNDgDAmLZs2TJJ4Q2EaCsrSktLtXbtWq1duzbuMYKNiIG3ngTHra2tjZqJ9QSXwaI1J2w2W2j/jqGM9DwAAACjyU73BAAAAAAAAJKJZgcAAAAAADAVmh0AAAAAAMBUaHYAAAAAAABTodkBAAAAAABMhWYHAAAAAAAwlVyPxxPz4FDHhkKOHDly5FKbkySfzxd33ij1xZvz+/3Kzqafnwp+v3/Y9yfTPy/kyJEjR44cOfPlcq1Wa8wLxTo23ATIkSNHjlxqc5KUk5MTV95I9cWbo9GROtnZ2UO+P0b4vJAjR44cOXLkzJfjp0EAAAAAAGAqNDsAAAAAAICp0OwAAAAAAACmQrMDAAAAAACYCs0OAAAAAABgKjQ7AACmU1xcrJMnT+rDDz9M91RM7aOPPtKkSZPSPQ0AAIAINDsAAKZTXFysQCCgbdu2pXsqpvXiiy+qp6dHkydPTvdUAAAAIuSmewIAACTbXXfdpba2Nj366KN68803VVxcrLy8vHRPyxR8Pp8++OAD/fGPf5QkrV69Os0zAgAAiESzAwBgOpMnT9aWLVt0//33q729Xe3t7emekulMnTpV999/vyZOnJjuqQAAAESg2QEAMKWZM2fqySeflNvtVldXl/r7+0eU6+7uVmFhYdzjJZo7ffp0QvtepHqewVxubq4mTJggm82m7GzuhgUAAJmJZgcAwLSys7M1ceLEuFYfeDweWa3WuMdKNGe1WjVlypSUjZfqHAAAQDrwKxkAAAAAAGAqWWfPng2kexKS+X9jRH3GRn3GNhbqW7x4scrLy9XU1JTu6STdWHj/qM+4qM/YqM/YqM/YqM/YjFBfbqwJGmV5LDly5MiR80iScnJy4sobqT5y5MiRI0eOHDly5OLBbSwAAAAAAMBUaHYAAAAAAABTodkBAAAAAABMhWYHAAAAAAAwFZodAAAAAADAVGh2AAAAAAAAU6HZAQAAAAAATIVmBwAAAAAAMBWaHQAAAAAAwFRodgAAAAAAAFOh2QEAAAAAAEyFZgcAAAAAADCVrLNnzwbSPQlJ8ng8slqt6Z7GqKE+Y6M+YxsL9S1evFjl5eVqampK93SSbiy8f9RnXNRnbNRnbNRnbNRnbEaoLzfWBBOdPDly5MiRS31OknJycuLKG6k+cuTIkSNHjhw5cuTiwW0sAAAAAADAVHLTPQEAAEZDf3+/fv3rX+vAgQPq6OhQX1/fiHJ+v1/Z2fH/LiDRXH9/v3Jz4//fcarnGczl5eVpxowZuuqqq7R48WKNGzcu7msBAACMNpodAADT6e3t1fLly/Xee+9JkoqKipSfn5/mWZlDb2+v3nnnHb3wwgt66qmn9PjjjyfUrAEAABhN/HQCADCdxx57TO+9956Ki4v1wAMPqLy8PN1TMpX29natWbNG7777rnbs2KFbb7013VMCAAAIw54dAADTOXjwoCSpqamJRscomDt3rhobGyVJr7zySppnAwAAEIlmBwDAdE6ePCmr1aqZM2emeyqmNWvWLFmtVp06dSrdUwEAAIhAswMAYDper1dFRUXpnobpFRUV6ZNPPkn3NAAAACLQ7AAAAAAAAKZCswMAAAAAAJgKzQ4AAAAAAGAqNDsAAAAAAICp0OwAAAAAAACmknX8+PFAtANWq1UejyfuCyaaS1Sq50l9yUV9mZFLFPVlRk6SFi9erDlz5uj+++8f9fGM8P7dfvvtysnJ0a5du1Iy3lhVVVUln8+nhx9+OOnXNvPn89OMR33JzSWK+jIjlyjqy4xcoqgvM3KJSuU8swKBQNRmh8fjkdVqjXsSieY6Ozs1ZcqUlI1HfcnNUV9yx6O+5ObGQn2LFy/WlVdeqS1btoz6eEZ4/6qqqiSJZscoG8m/57Hw/Ud9yRuP+pKbo77kjkd9yc1RX3LHo75I3MYCAAAAAABMhWYHAAAAAAAwFZodAAAAAADAVGh2AAAAAAAAU6HZAQAAAAAATIVmBwAAAAAAMBWaHQCAjDeaz393uVzas2ePvF6vHA6H3G63Wltb5XQ65XQ65XA4IjLNzc1yuVxyuVyqqqqS3W6P+Oe+++6T1+uNOt5tt90ml8s1ovm1traqtbU16rHgHIPXjTWXqqqqqOM5nc6Y8wQAADCy3HRPAACA4dx555265JJL9Ld/+7eaN2+ebDZb0q5dWlqqQ4cOhZoGLS0tuuiii2S329Xa2qqKiooh8zU1NVq2bFnYay6XS0888YSk8w2FlStXRuRuuummsK/nzp2rZcuW6Z577ok6zrp168K+3rx5s+bMmaPGxkZNnDhRpaWl2rVrlyTJ7XZr48aNWr16dejfldfr1X333afdu3dHXHvwa5WVlVq7dq0sFstQpQMAAGQsmh0AgIzn9/u1b98+7du3T5L01a9+VTfeeKPsdrsuvvjiT3Xt1tbWiEaCJBUWFqqlpUXt7e2h1/7mb/5Ghw8f1smTJ/XQQw/ppptu0muvvaaHHnooIl9ZWRn6c0NDg6qrq0PjSQp9PViw6TJwfkOdf8cdd4SaFXv37o1ovHi9XjU2NqqmpkaTJ0/WSy+9NGSzyO12a/v27TGPAwAAGAHNDgAwibNnz+p3v/vdiM/v6elRQUFB3OOkOvfhhx+qp6cn7LVXX31Vr776qiTpmmuuUWVlpSZOnKirr7467tUI1dXVqq6u1m9+8xvt2bNHVqtVa9euVVtbm6ZNm6Zf/OIX8nq9YSslmpubNX/+fElScXFxRINhsHPnzkWsqoi1UmP9+vVRV18MPH/gygubzaba2lpJCq1QKSsrC53b1tam2bNna9asWZo1a1bYNaOtALHZbKqvrx/JvzoAAICMRbMDAEwgEAjo8OHDuvPOO9M9lZR744039MYbb0iSrrjiCn3729+Wz+dTTk7OiPJer1fr16/XjTfeqJkzZ+rzn/+8nnnmGfX09KioqEher1ddXV0qKioatpHicDhUUVEhu90e9vr48eO1YcMG1dTU6MCBA0M2EzZs2KANGzaEvo61ssPtduv73/++2tvbtXnzZtntdl133XXavn27pk6dGjrn6NGjWrFiRVitg5spA7/mFhYAAGAGNDsAwCRyc3P1ta99bcTn9/f3Kzc3/v8NpDrn9XrV3t4+ok1KT506pQMHDsTV7Hjssce0fPlylZSU6A9/+IPmzp2rffv26Tvf+Y5effVVdXV16cyZM5o9e3aoAdDd3a2bbrpJq1evVktLS9htLFu3bg39efPmzaE/u91utbS0aPXq1ZIUWh1SWloaOsfhcITlBxq8EqSurk7btm0L27w0uCrD7XaHfT3QwFtZBq/s4BYWAABgFllnz54NpHsS0vmd9q1Wa7qnMWqoz9jiqa+3t1dPPPGE/vjHP+qvf/2r+vr6Rnl2n14gEFBWVla6pzGkvLw8FRcXa86cObr11ls1fvz4EWfHwudz0aJFKiws1HPPPZfu6SSdx+PRPffco8OHD0c9XlxcrPLycv393/+9Zs+eLUm65ZZblJ2dHdqwczjBfS1qa2vDmg9Op1MHDhyQpNBGpStXrlRJSYkcDofOnDkTtlIj2soOp9Opjo4OTZs2LepGpUHB1RkDtba2qrCwUH/+85+1YsUKWSwWtba26o033gitvmhtbdXFF1+s559/PurtL0F1dXVasWJFzNtkguJZ2VFVVSW/368nn3wy5jlj4fuP+oyL+oyN+oyN+ozNCPXlxppgopMnR24s53p6elRXV6fOzk5J53+rGs9fyhFbd3d36DGbe/bs0dNPP638/PwRZTP185LMnCRlZWXFlTdSfYNXaUydOlVXXXWVbr311oh9KCQpO3vkT1YfuJpi586dkv7/v/DPmTNHLS0tkqQ5c+bIYrHI6XSqublZktTR0aHCwkItXbo0tJFp8Fp1dXWqr68PNTrsdnvY5qPRVnYMntf06dN1/fXXa8KECbr22mslnd/sdOBtLpJksVjCbn+JtheHdL6pk+yVHdnZ2UO+r0b6nJEjR44cOXLkzJPjNhYgibZt26bOzk5deumleuCBB8I2CcSn53K5tGbNGr377rt65JFHtHz58nRPCSmSlZWlqVOn6uqrr9Ztt92mz372s0m7dlVVlQ4fPqx169bJYrFo/fr1qqmpkcVikdvtDjUrojl69Kg+//nPa968efrFL34RWg3hcrm0d+9eSec3WC0sLFRVVZVOnDgRlh94+8vcuXPV1NSkrq4u1dfXq7S0NLSaxG63a/PmzfrRj36k8vLyqHPZs2ePysrKYjZPgk6ePKkFCxaEvTZ4zw4AAACjo9kBJNFbb70lSfrpT3867F84EL/S0lI98MADuvnmm3Xw4EGaHWPIv//7v6u4uHhUrl1aWqp169bp7rvvDq3OmDx5sqTzt6xs3rxZHR0dWr9+fdjtHUeOHNHhw4e1aNEibd++PWKvjbq6OrlcLp06dUrf+c53dP3114cdj7Vnx8mTJ7Vz5061tbWFXmtra5PD4dDOnTtDt6EEV44E59nQ0DCi/+6wZwcAABgLaHYASXTixAlNmDCBRscoKisrk81m06lTp9I9FaTQaDU6pPBmQvB71+l0atOmTaGmgN1u17Rp0/Qv//IvOnz4sC6++GJdd911Wrp0qWw2W8yVHYcOHdINN9ww4iebDNxM9OjRo1q3bp02b94c9vrgp7UcPXo06n4f0VgsliGfBMNjZwEAgFnQ7ACSqK+vj8c1psD48eMNsfErjKG+vj7iL/h2u13btm2LeC1WQ2FwvrS0dNim57Jly+Ke10jGls43LQbv6xHNSM8DAAAwmpHv4AYAAAAAAGAANDsAAAAAAICp0OwAAAAAAACmQrMDAAAAAACYCs0OAAAAAABgKjQ7AAAAAACAqdDsAAAAAAAApkKzAwAAAAAAmEqux+OJeXCoY0MhR24s5d566y29+uqrOnbsmD744AMVFBQkdH3Ex+/3x/VeZsrnZbRykhQIBOLOG6W+eHN+v1/Z2fTzU2Ek34uZ/nkhR44cOXLkyJkvl2u1WmNeKNax4SZAjtxYyLlcLv3zP/+zjhw5Evf18OllZ2eP+L3MhM/LaOckKSsrK668keqLN0ejI3WG+140wueFHDly5MiRI2e+XG7cowDQ888/r4aGBgUCAc2bN09/93d/p7lz56q+vl5ZWVnpnh4AAAAAjGk0O4A4HT16VD/5yU8UCAR03333qaamJnSMRgcAAAAApB/rfIE4bdy4UefOndP3v//9sEYHAAAAACAz0OwA4tDb26tDhw6poKBAN998c7qnAyCG4uJinTx5Uh9++GG6p2JqH330kSZNmpTuaQAAAESg2QHE4fXXX9fHH3+shQsXymazpXs6AGIoLi5WIBDQtm3b0j0V03rxxRfV09OjyZMnp3sqAAAAEdizA4jD8ePHJUlz585N80wADOWuu+5SW1ubHn30Ub355psqLi5WXl5euqdlCj6fTx988IH++Mc/SpJWr16d5hkBAABEotkBxOHUqVOSpJKSkjTPBMBQJk+erC1btuj+++9Xe3u72tvb0z0l05k6daruv/9+TZw4Md1TAQAAiECzA4jDRx99JEm68MIL0zwTAMOZOXOmnnzySbndbnV1dam/v39Eue7ubhUWFsY9XqK506dPJ7TvRarnGczl5uZqwoQJstlsys7mblgAAJCZaHYAAEwrOztbEydOjGv1gcfjkdVqjXusRHNWq1VTpkxJ2XipzgEAAKQDv5IBAAAAAACmQrMDAAAAAACYCs0OAAAAAABgKrkejyfmwaGODYUcObPm+vr6JEk9PT1Rr+P3+zNiwz6v16tnnnlG3/zmN2WxWORwOLR169ao59bV1am+vj4iv379etXU1Mhut6diynHz+/1xvZdG+pwlKhAIxJ03Sn3kyJEjR44cOXLkyMUjN9ZmY0bZ+IwcuVTm8vLyJEkFBQVRr5MJjQ5JslgsmjlzprZs2aL6+vrQP5LU2toqSaqurg6d73Q6tXLlyojr7N69O+K1zZs3Z0QDJDs7e8TvpdE+Z4nkJCkrKyuuvJHqI0eOHDly5MiRI0cuHjyNBTApu92urq4uuVwu7d27V/Pnz1dpaWnYOU6nUwcOHFBFRYUaGhrCGiDRBBslAAAAAJDJaHYAJnb99ddLkiZMmKDt27drxYoVoWNut1stLS1avXq1bDZbxGqNaCtAhmuGAAAAAEAmoNkBmFBra6vWrVunyspKrV27VjabTdOnT9fbb78dOmf//v2qqamRzWaTFPtWlnXr1oX+nCm3sARFm0sgEJB0/paOoWRlZcnv94/ovIHXHe68aOdmZWUpEAhEjBXtmsFzY117sIHn9vf3DzlHAAAAYKyg2QGYUHV1ta677jpt37497DVJ6ujoCPt6oIG3sgxe2ZGJt7AM1RiI1lwYmIl1fLjrBw3OD9UMCR4brmES65yR5CSpt7d3ROcBAAAAZkezAzA5p9Opu+66K+L14IqNkpISORyO0GsDV3IMPE86v7Ijkxw8eFDS8M2E48ePa8qUKRHnDD5/8HUGb4QUK+v3+9Xf3y+fzyefz6ezZ8/KYrEoEAjI5/NJknw+n/r7+xUIBNTX1ye/3x/6x+fzKRAIqKenR/n5+aHX/H6/AoFA6NrBr4M56fxqjq6uLv385z9XQUFBAv8WAQAAAPOh2QGYnN1ul9PpDH0dbS8OSTpz5ozhVnYEBVdYxFqpkZOTo5ycnLiv29vbq3HjxsWds1gsKd2durOzUz//+c/jzgEAAABmRbMDMDm32619+/aptrZ22HONtrID4bq7u9M9BQAAACAj0OwATOzgwYM6ePCgmpqaRnS+UVd2AAAAAMBANDsAk+rq6tLll1+uVatWyWKxDHu+3W4f8kkrPHYWAAAAgFHQ7ABMqrS0VPfee2/E6yNtWtDcAAAAAGBU2emeAAAAAAAAQDLR7AAAAAAAAKaSdfz48UC0A1arVR6PJ+4LJppLVKrnSX3JZbT6mpqatGfPHj344IMqKyuLOH777bcrJydHu3btSngMDK+qqko+n08PP/zwqI5jpM/nokWLlJWVpd/85jejPh7/fUluLlHUlxm5RFFfZuQSRX2ZkUsU9WVGLlHUlxm5RKVynrlTpkyJesDj8SjWsaEkmuvs7EzpeNSX3NxYqa+goECSNGnSpKjXycnJifvaSExOTs6I38ux8PkMiidvpPoSyXV1den111/X66+/rmPHjqm3t3dEOb/fr+zs+Bc+Jprr7+9Xbm78W2ilevFFjIYAACAASURBVJ7BXH5+vmbMmKErr7xS1dXVGjdu3JC5sfD9Z4R5Ul901Jfc8agvuTnqS+541JfcnBHqY4NSAIDp9Pb26vbbb9f7778vSSoqKlJ+fn6aZ2UOvb29euedd/TCCy9ox44devzxxxNq1gAAAIwmfjoBAJjOo48+qvfff1/FxcV64IEHVF5enu4pmcrbb7+tNWvW6N1339WOHTt06623pntKAAAAYdigFABgOk6nU9L5fXZodCTfnDlz9LOf/UyS9Morr6R5NgAAAJFodgAATOfkyZOyWq2aOXNmuqdiWrNmzZLVatWpU6fSPRUAAIAINDsAAKbj9XpVVFSU7mmYXlFRkT755JN0TwMAACACzQ4AAAAAAGAqNDsAAAAAAICp0OwAAAAAAACmQrMDAAAAAACYCs0OAAAAAABgKjQ7AAAAAACAqdDsAAAAAAAAppLr8XhiHhzq2FDIkTNrrq+vT5LU09MT9Tp+v1/Z2fQQU8Hv98f1Xhrpc/ZpxJs3Sn3x5vheTJ2RfC9m+ueFHDly5MiRI2e+XK7Vao15oVjHhpsAOXJmzeXl5UmSCgoKol6Hv1ylTnZ29ojfS6N9zhLJBcWTN1J98eb4Xkyd4b4XjfB5IUeOHDly5MiZL8dPgwAAAAAAwFRodgAAAAAAAFOh2QEkUV5enrxeb7qnYXr9/f2hW4oAAAAAYDCaHUASlZSUqKurSy6XK91TMa1z586pq6tLxcXF6Z4KAAAAgAxFswNIoiuuuEKStGbNGh05ciTNszGfs2fPauPGjerv79e8efPSPR0AAAAAGSo33RMAzGTp0qV6/vnn9e677+rmm2+WzWbT+PHj0z0tU/D5fDpz5oz6+/s1ZcoU3XbbbemeEsaw5uZmzZ8/X6WlpaHXXC6XGhsbtW7dOtlsttDrTqdTK1euHPJ6lZWVWrt2rSwWy7Bjt7a2atq0abLb7aHrd3R0qLq6OnSO1+vV+vXrVVNTEzoPAABgLKHZASRRQUGBnn76aT3yyCM6ePCgTpw4IZ/PF/d1/H5/Qo/OTDTn8/mUk5OTsvESyVksFn3hC1/QlVdeqaVLlyo/Pz/ucWFc//iP/6iSkhLddtttuuSSS9I9nRCXy6X6+nqdOHEi9NqCBQskSXPnzlVTU5Mkqa6uTvX19VGv4Xa7tX37dknnGxnr1q0LHQteY2DzJJZgg2P37t2h1wb+efPmzTQ+AADAmEGzA0iy/Px8LV++XMuXLzfE86cH/nY4FeOlIwfjO3nypPbt26cnnnhCn/nMZ3T11Vfru9/9rj772c+mdB4DmxsPPfSQ6urq9Ktf/Urbt2/XihUrZLFY5Ha7tXHjRq1evXpETYqBqqurQys0gk2Q3bt3a+PGjRHnfuMb35Akvfjii5KklpYWNTU1qaysLGzVicPhUEVFBY0OAAAwptDsAAAYRiAQ0NGjR3X06FE9/fTTods5amtrddlll436+KWlpdq1a1fEbSwVFRVqa2vTwoUL9V//9V9avnx53I0OKfyWlK6uLhUWFqq2tla1tbWhcwbfxvLtb3877DaWmpqaUPOlra1N06dPp9EBAADGHJodAGASfr9/zP2ltqOjQx0dHWptbZUkLVy4UN/97ndTNr7D4dDWrVtDXwdvQdm5c6ek87eOxMNut+vNN9+Uy+XSmTNndNFFF8nlcumJJ57QqlWrhtzTY/DeIIPnNdStNAAAAGZDswMATCI7Ozu0X8RI9Pf3Kzc3/v8NpDp37tw5vfXWWzp79uyw57a1teno0aP65JNPNG7cuLjHGqnu7m7V19fL4XCovr5ebrdbDQ0NWrVqVdimpVL8t4jV1NSEblupqalRaWmpZs+erba2trBNSAdat26dGhoaQmM5HA5Nnz495vkAAABmR7MDAEwiLy9P//qv/zri842y50pnZ6dWr149ZLPjC1/4gqqrqzVv3jxNnTpVVVVVcY8zEsHVEyUlJfrpT3+qX/7yl2GbgL722muhP5eUlMjhcMQ9hs1mU01NjTZt2qSysjJJ51esNDY2qry8PHSe2+3W3Xffrfb2djU0NEhSxMqegZudNjQ00PwAAABjRq7H44l5cKhjQyFHzqy5vr4+SVJPT8+Ir2Ok+sgZNyed388i3rxR6ov2VKOrrrpKCxcu1JVXXhn2hBaPx5Pwk4KGY7fb5XQ61dzcrPHjx2vDhg2qqanRgQMHQreIuFwu7d27V8uWLZMknTlzJu5xOjo61N7eriNHjshut8tisejee++VJB06dEjS+abItm3bwvb5uO6668I2R/V6vdqyZYuWLFmS0B4iI+H3+4d9X43yOSNHjhw5cuTImSeXG+u3bEb5jR85cqnM5eXlSTr/iNmRXMco9UkyxDzJxc5JUlZWVlx5I9UXfDRyRUWFbrzxRl199dW6+OKLY2ZGo9ERy+HDh9XW1qaDBw/qrrvu0rZt28JWVMTL5XLppZde0tNPP60tW7aorKxsxI2Kzs5OHTt2TAsWLNCmTZv0/PPPq6amZtQaHdL5f9dDva9G+pyRI0eOHDly5MyT4zYWAEDGu+uuu3TZZZdpwoQJ6Z5KhNraWn3zm9/U+vXrQxuE7t+/P+yWka1bt4ZtGDpYZWWlpPO3pjQ2NmrVqlWaMWOGampqIq41lNmzZ+uRRx5Ra2ur7rrrrtDrc+bMGXJzUwAAALNJ3a++AABI0Je+9KWMaHS4XC5VVVVp//79ysrK0tKlS2W323XTTTdp+fLlcjqdoU1Cly5dKrfbLUmqq6sLHRv8z0svvaTJkydLkrZv366lS5eGNjm12+2qrq4OjWu329XS0qKysjJ5vV7dd999WrlypaZNmyaHwyG73R7atyN4/eXLl+umm26Ke6NUAAAAI2NlBwAAI1RaWqpdu3aFvt62bVvU86qrq0OrMQY2IKKx2Wyh/T5iPRp28LhBGzZs0IYNG0LjRMvHygIAAJgZKzsAAAAAAICp0OwAAAAAAACmQrMDAAAAAACYCs0OAAAAAABgKjQ7AAAAAACAqdDsAAAAAAAApkKzAwAAAAAAmArNDgAAAAAAYCo0OwAAAAAAgKnkejyemAeHOjYUcuTMmuvr65Mk9fT0jPg6mV7fxRdfLL/fn/HzJDe8QCAQd94o9cWb8/v9ys6mn58KI/nvR6Z/XsiRI0eOHDly5svlWq3WmBeKdWy4CZAjZ9ZcXl6eJKmgoGBE1zFCfVlZWZKU8fMkN3ROOv9expM3Un3x5mh0pE52dvaQ748RPi/kyJEjR44cOfPl+GkQAAAAAACYCs0OAAAAAABgKjQ7AACmU1JSoq6urnRPw9ROnz6tEydO6JJLLkn3VAAAACLQ7AAAmM7UqVPl9Xr1yCOPpHsqptXc3CxJmj59eppnAgAAECk33RMAACDZ7rzzTj377LNqamrSc889J5vNxqalSdLf36/Tp0/r2LFjkqQf/vCHaZ4RAABAJJodAADTueSSS9Tc3KyHH35Yr7/+unw+X7qnZCo5OTmy2+265557ZLPZ0j0dAACACDQ7AACmdOmll2rTpk3yer3q7OxUX1/fiHLd3d0qLCyMe7xEc6dPn9akSZNSNt6nzeXn52vKlCkaN25c3NcAAABIFZodAABTs1gsuvTSS0d8fqqfG2+1WjVlypSUjZfqHAAAQDpwAzMAAAAAADAVmh0AAAAAAMBUaHYAAAAAAABTodkBAAAAAABMJev48eOBaAesVqs8Hk/cF0w0l6hUz5P6ksto9TU1NWnPnj168MEHVVZWNmrjpTK3dOlSSdK2bdtSMl46cokyUn2LFi1SXl6eWlpaRn083r/k5hJFfZmRSxT1ZUYuUdSXGblEUV9m5BJFfZmRS1Qq55kVCASiNjtSvVt7Z2enqXejp77kjpeu+v7f//t/+s1vfqNHH31Ul19+ecbNM5FcZWWlfD6fXnzxxZSMl47cWPh8Llq0SPn5+frv//7vUR+P9y+5OepL7njUl9wc9SV3POpLbo76kjse9SU3R33JHS+RHLexAAAAAAAAU6HZAQAAAAAATIVmBwAAAAAAMBWaHQAAAAAAwFRodgAAAAAAAFOh2QEAAAAAAEyFZgcAAAAAADAVmh0AAAAAAMBUaHYAAAAAAABTodkBAAAAAABMhWYHAAAAAAAwFZodAAAAAADAVHI9Hk/Mg0MdGwo5cmbN9fX1SZJ6enpGfJ1Mry8QCKR0PHKjk5POv5fx5o1SXyK5/v5+PfbYYzp48KCOHz+u3t7ehMYebX6/X9nZxvndQ35+vqZPn64rrrhCN954o8aNGzdsxgifF3LkyJEjR46cuXK5Vqs15oViHRtuAuTImTWXl5cnSSooKBjRdYxQX1ZWliRl/DzJDZ2Tzr+X8eSNVF+8ud7eXi1dulTvv/++JKmoqEj5+flxj41Ivb29+stf/qLf/va3evbZZ/X4448rNzc35vlG+LyQI0eOHDly5MyXi/3TCQAABvXoo4/q/fffV3FxsR544AGVl5ene0qm8vbbb2vNmjV69913tWPHDt16663pnhIAAEAY46ybBQBghJxOpySpqamJRscomDNnjn72s59Jkl555ZU0zwYAACASzQ4AgOmcPHlSVqtVM2fOTPdUTGvWrFmyWq06depUuqcCAAAQgWYHAMB0vF6vioqK0j0N0ysqKtInn3yS7mkAAABEoNkBAAAAAABMhWYHAAAAAAAwFZodAAAAAADAVGh2AAAAAAAAU6HZAQAAAAAATIVmBwAAAAAAMBWaHQAAAAAAwFRodgAAAAAAAFPJ9Xg8MQ8OdWwo5MiZNdfX1ydJ6unpGfF1Mr2+QCCQ0vHIjU5OOv9exps3Sn3x5vx+v7Kz6eengt/vH/b9yfTPCzly5MiRI0fOfLlcq9Ua80Kxjg03AXLkzJrLy8uTJBUUFIzoOkaoLysrS5Iyfp7khs5J59/LePJGqi/eHI2O1MnOzh7y/THC54UcOXLkyJEjZ74cPw0CAAAAAABTodkBAAAAAABMhWYHAAAAAAAwFZodAAAAAADAVHLTPQEAAIzI4XCooqJCdrtdTqdTHR0dKi8v1969e7Vs2TJJksvlUn19vU6cOBHK1dXVaevWrWHXKikpkcPhkCQdOXJE119/vdxut+6++261t7dHHX/z5s2y2+1hr7ndbjU0NGjVqlUqLS1NZrlJ093drcLCwnRPAwAAmBzNDgBAxvvxj3+sCy+8UIsWLdLnPve5dE9HbrdbJ0+eVFlZWdjrpaWl2rVrlxwOh+rr60Nfu1yusCZIfX19WO6JJ57QhAkTZLPZtGvXLk2YMEF2u13btm2TJHm9XjU2Nqq2tjasidHa2qp169ZFzO+1114L+zrYTElXA8Tj8ejll1/Wnj179M477+i5555LyzwAAMDYQbMDAJDxTp48qWeffVa/+tWvNGPGDH3lK19RVVWVLr/88rTMZ//+/brmmmtks9kijtXX16u5uVkulyvUXDhy5Ijmz58vKbJx4Xa7JSl0rRUrVuiZZ57R1KlTtWPHDq1YsSJijOCqEin6Co/BmpubEy82QV1dXdq3b5+ee+45vfXWW+rv75ckTZgwIeVzAQAAYw/NDgCAobz33nt677339Pjjj+szn/mMvvzlL+vGG29UeXl5Ssb3er164403VFNTE3pt4sSJeuGFF9TS0hK67WT//v1qamqSJP35z3/WV7/61dD5RUVFob/0HzlyROPHjw8ds1gsqq2tlSRVVFSora1NCxcuDB13Op2SJLvdHrXJMfD2mqDgipLRdurUKe3bt0+//e1v5XQ6FQgEUjIuAADAYDQ7AMAk+vv79U//9E9xnZ+bG///BlKd83q9+stf/hL12LFjx3Ts2DHt2LFDEydO1Je//GV985vfjHuMeLS1tWn37t2aP3++li5dGmpuxLpVpLW1VVu3btXWrVtVWVkZuoXFYrFIkjo6OjRt2jR5vV6tX79eu3fvVkNDg6qrqzVnzhwdOHAgtPrj3LlzOnDggJYsWRJ2/cG3sgzcE2S0b2Hx+Xzavn27fvvb3+rQoUPDnv/RRx+pqqpq2PP8fr+ys+PfRz3VOZ/Pp5ycnJSNR33JzVFfcsejvuTmqC+54/n9fk2dOlX/+Z//qby8vLjzMB6aHQBgEj6fT3v37k33NNLmzJkzev7553Xs2DGdO3dO48aNS/oYbrdbb7zxhiorKzVhwoTQnhput1sbN26MuEXD7XarpaVFDQ0Nuu6667R9+3ZJ0sGDByM2Ka2srNTatWtVU1Ojjo4OSecbIvX19fJ6vZKk8ePHR+z3IYXfyjJ4ZUc6bmEBACDTfPzxx/rDH/6gDz/8UJMnT073dJACNDsAwASysrI0a9Ys3XvvvSPO9PT0qKCgIO6xUp374IMP1NzcrD/96U8xz7nqqqs0f/58VVRUaMaMGSNaOZCIrq4uffe739VLL70U9rrNZlNZWZm6urrC9vE4cuSI5s2bF3FusEkSFNzANLjaQzrftBjcENm5c2foz8HmiCStXLky7LzBKzuC+4WMhpycHC1ZskRLliwZ0W0sF154oXbt2jXsdT0ej6xWa9zzSXWus7NTU6ZMSdl41JfcHPUldzzqS26O+pI7Xl1dnd566624czAumh0AYBKFhYW64oorRny+kX4YGvyo0qysLF1zzTX6xje+oWuvvVaXXHJJ3NdNRPBWkMHNDkm66KKLdOjQobDbRYKrK4IrNSSpsbExrGlRUlKi733ve+ru7g67Xn19fWgVR6ynsQRlysqO4uJi3XLLLbrllltCG5Q+//zzOnToUGiDUgAAgFTI9Xg8MQ8OdWwo5MiZNdfX1yfp/G+oR3qdTK8v+JvXTJ8nueH5fL6480apz+fzKTc3V3a7XQsWLIh4Esrg6yZ6P++nUV5ersbGRl133XWy2WxhT0wZaNWqVRErcJxOp06fPh3xmqRhn7QipXdlh9/vj/q+5ubm6vrrr9eXvvQlZWVl6cCBA9q3b5/+8pe/mOa/n+TIkSNHzlg5Seru7jbtz0vkwuXG+i2bUX7jR45cKnPBzYwKCgpGdB0j1JeVlSVJGT9PckPnpPO3E8STN1J93//+93XZZZfpggsuGFEm1Y0O6fyqjwULFmjjxo1avXq1Pv74Y02cOFFnzpwJbSBaWVkZNTtw5YckrVu3TnV1dVH354gmnSs7srOzh3xfPR6PSkpK9K1vfUvf+ta31N3dHbFSJ1bOKJ9PcuTIkSOX+bmgwsJC0/68RC4ct7EAADLe4H0vMlV1dbUkacGCBaqsrFRJSYnOnDkTsUGpdH7z0rvvvlvt7e2hJ6ZI5xsfwaexxDNmLKl67OxIjaTRAQAA8GnR7AAAIE5Drbiorq4Oa0DY7fbQKouBuWgblQbzg1kslhFvPjvS1SAAAABmlvp1vgAAAAAAAKOIZgcAAAAAADAVmh0AAAAAAMBUaHYAAAAAAABTodkBAAAAAABMhWYHAAAAAAAwFZodAAAAAADAVGh2AAAAAAAAU6HZAQAAAAAATIVmBwAAAAAAMJXczs7OqAesVqtiHRtKojlJKR2P+pKbk8ZGfT09PZKk06dP64ILLhi18VKZ8/l8ksbG+5eq8dJRnyT19vbGlTdSfYl8rnNychIaC/Hx+XzDvj9G+Jzx35fYjDBP6ovNCPOkvtiMME+j1Bd06tQp+f3+lIxnhPfBzPXlTpkyJeoBj8ejWMeGkmius7MzpeNRX3JzY6W+goICSdKkSZNGdB0j1JeTkyOfz5fx8/w0ubHw+ZSk/Pz8uPJGqi+RzzVSIycnZ8j3Zyx8/xlhntQXHfUldzzqS26O+pI7XlBxcbEmT5486uPx/iV3vERy3MYCAAAAAABMhWYHAMB0SkpK1NXVle5pmNrp06d14sQJXXLJJemeCgAAQASaHQAA05k6daq8Xq8eeeSRdE/FtJqbmyVJ06dPT/NMAAAAIuWmewIAACTbnXfeqWeffVZNTU167rnnZLPZlJ1Nfz8Z+vv7dfr0aR07dkyS9MMf/jDNMwIAAIhEswMAYDqXXHKJmpub9fDDD+v1118PPXUIyZGTkyO73a577rlHNpst3dMBAACIQLMDAGBKl156qTZt2iSv16vOzk719fWNKNfd3a3CwsK4x0s0d/r0aU2aNEk/+MEPJEkPPfTQqI73aXPBp/6MGzcu7msAAACkCs0OAICpWSwWXXrppSM+3+PxyGq1xj1Oojmr1aopU6YoN/f8/5JnzZo1quOlOgcAAJAO3MAMAAAAAABMhWYHAAAAAAAwFZodAAAAAADAVGh2AAAAAAAAU6HZAQAAAAAATCXX4/HEPDjUsaGQI2fWXPDRlT09PSO+TqbXFwgEUjoeudHJSZLP54s7b5T6xkIuke9FI9VHjhw5cuTIpTsnnX+UOj8vjY1cbqzHyBnlkXbkyKUyl5eXJ0kqKCgY0XWMUF9WVpYkZfw8yQ2dk6ScnJy48kaqbyzk4v1eNFp95MiRI0eOXDpzQYWFhfy8NEZy3MYCAAAAAABMhWYHAAAAAAAwFZodAAAAAADAVGh2AAAAAAAAU6HZAQAAAAAATIVmBwAAAAAAMBWaHQAAAAAAwFRodgAAAAAAAFOh2QEAAAAAAEwlN90TAABgLPrwww/14IMP6ty5cxo/frzOnj0rSVq7dm3onB/+8Ie66KKL0jVFAAAAw6LZAQBAGlx00UV677339Kc//Sns9eeff16SNGfOHBodAAAACeI2FgAA0uTrX/96zGPz589P4UwAAADMJdfj8cQ8ONSxoZAjZ9ZcX1+fJKmnp2fE18n0+gKBQErHIzc6OUny+Xxx541Sn1lzX/rSl/Qf//EfMY8Nd71Mr48cOXLkyJHLpJwkdXd38/PSGMnlWq3WmBeKdWy4CZAjZ9ZcXl6eJKmgoGBE1zFCfVlZWZKU8fMkN3ROknJycuLKG6k+s+Zmz56t0tJSuVyusNcvu+wyzZ49O2PmSY4cOXLkyBk9F1RYWMjPS2Mkx20sAACk0Ve+8pWI17iFBQAA4NOh2QEAQBpFa3YMtZcHAAAAhkezAwCANJoxY4ZKS0tDX5eWlupzn/tcGmcEAABgfDQ7AABIs4ErOVjVAQAA8OnR7AAAIM1odgAAACRXbronAADAWHf55Zdr2rRpoT8DAADg06HZAQBABmBFBwAAQPLQ7AAAmFJ/f79aWlr0+uuv69ixY+rt7R1Rzu/3Kzs7/rs8E8319/crNzdXn3zyiSTp5ZdfHtXxPm0uPz9fM2bM0JVXXqnq6mqNGzcu7msBAACMNpodAADT6e3t1e233673339fklRUVKT8/Pw0z2pkgk2PTNXb26t33nlHL7zwgnbs2KHHH39cubn8OAEAADILP50AAEzn0Ucf1fvvv6/i4mI98MADKi8vT/eUTOXtt9/WmjVr9O6772rHjh269dZb0z0lAACAMDyNBQBgOk6nU5LU1NREo2MUzJkzRz/72c8kSa+88kqaZwMAABCJZgcAwHROnjwpq9WqmTNnpnsqpjVr1ixZrVadOnUq3VMBAACIkOvxeGIeHOrYUMiRM2uur69PktTT0zPi62R6fYFAIKXjkRudnCT5fL6480apL95cT0+PioqKEhoLI1dUVKRz584N+/5k+ueFHDly5MiNjZwkdXd38/PSGMnlWq3WmBeKdWy4CZAjZ9ZcXl6eJKmgoGBE1zFCfVlZWZKU8fMkN3ROknJycuLKG6m+eHOJPG0EicnOzh7y/THC54UcOXLkyJk/F1RYWMjPS2Mkx0+DAAAAAADAVGh2AAAAAAAAU6HZAQAAAAAATIVmBwAAAAAAMBWaHQAAAAAAwFRodgAAAAAAAFOh2QEAAAAAAEyFZgcAAAAAADAVmh0AAAAAAMBUaHYAAAAAAABTodkBAAAAAABMhWYHAAAAAAAwldzOzs6oB6xWq2IdG0qiOUkpHY/6kpuTxkZ9PT09kqTTp0/rggsuGLXxUpnz+XySxsb7l6rx0lGfJPX29saVN1J9iXyuc3JyEhoL8fH5fMO+P0b4nPHfl9iMME/qi80I86S+2IwwT6PUF3Tq1Cn5/f6UjGeE98HM9eVOmTIl6gGPx6NYx4aSaK6zszOl41FfcnNjpb6CggJJ0qRJk0Z0HSPUl5OTI5/Pl/Hz/DS5sfD5lKT8/Py48kaqL5HP9Wjwer1qbGxUbW2tzpw5o5UrV4aOlZSUyOFwqLS0VG63W9u3b9fNN9+sp556SitWrJDFYol6LUkqKipSfX29XC6Xjhw5ouuvv15ut1t333232tvbo85l8+bNstvtYa+53W41NDRo1apVKi0tTXL10eXk5Az5/oyF7z8jzJP6oqO+5I5HfcnNUV9yxwsqLi7W5MmTR3083r/kjpdILjfuUQAASLGf/OQnuuKKK/T1r39dhYWFaZuHxWLRqlWr1NjYqNLSUtXV1am+vl6S1NzcrHPnzsnhcGjRokWSpAsvvFAVFRVav3691q5dG9HwKCoq0pIlS7R//361traqurpau3bt0oQJE2S327Vt2zZJ4U2WgU2M1tZWrVu3LmKer732WtjXAxsxAAAAYwHNDgBAxnv77bf19NNP6yc/+Ym++MUvasGCBbrhhhtGdDtZslksFt17771yOp06ffq0Wltbhzzfbrerq6tLzzzzjDZu3BhxfOvWrZKkuXPn6rrrrtOKFSv0zDPPaOrUqdqxY4dWrFgRkXE4HKqoqJAUfYXHYM3NzSMtDwAAwBRodgAADKO3t1dvvPGG3njjDf30pz/VF7/4RX3961/XDTfcoIkTJ476+C6XS42NjVFXUwzl+uuvlyTV1taGvd7c3Kz58+dHrLgInldRUaG2tjYtXLgwdMzpdEo630SJ1uQINkIGHlu2bFlc8wUAADA6mh0AYBLHjx/Xgw8+OOLze3t7lZ+fH/c4qc59/PHHOn36dMTrPp9PTqdTTqdT//Zv/6by8nJ97WtfC2sMJFtpaamWLl2qjRs36sYbbxz2/F27VuSwQQAAIABJREFUdun+++8Pu90lFq/Xq/Xr12v37t1qaGhQdXW15syZowMHDsjtdkuSzp07pwMHDmjJkiWhXLRbWYKrRSRuYQEAAGMTzQ4AMIlTp05p+/bt6Z5GWgQCAb355pt688039dRTT+mTTz6J2B8jWYIrKoIrLIZSVVUlu92uvXv3yuVyqb6+XidOnJAkVVZWhm2QZrFYtGHDBtXU1KijoyP0Wn19vbxeryRp/PjxUZsmA29lGbyyg1tYAADAWESzAwBM4KmnnpLH44kr8/+xd+/RUVb3/sc/uRJygQnXBBCJgChBtE1FC6ciQpdROU1PikfUUlIO0GNXUw9dTVvLIUgoIsQWQ2o9DZUDUii1lBqbVlAjRYtH0VGqSFupjsYYbgYGcmGSkMzvD37P05lkJpkZJplL3q+1WGSe5/nu/d2ZSSb5Zj97Nzc3mzsMhXPcp59+qp/+9Keqqanxes1ll12mL37xi5oxY4auu+46zZ071+9+fGW321VaWqpZs2aZx8aMGaP6+vpu47KyslRVVaXKykqNGTNGOTk5qqys1OnTpz3OuigvL3eboSFJu3btMj/Ozc3VihUrJMltVxip68wO11wBAAD6A4odABAFrrjiCr9jGhoalJaWFvZxdXV1Hosk48eP15w5c3TzzTfryiuv9LvdQJ05c0bjx49Xenq6GhsbdeTIEU2dOrXHuCNHjmjgwIFux8aMGaPa2lqPa28UFhaaszi87cZiYGYHAACAO4odAICIcdVVV2nOnDmaOXNmQAWeYHj77bc1dOhQs5iwdOlS/e1vf1NZWZksFosmT55srrFhOHHihLZv366ioiK340OGDNFzzz2nmTNn6vHHH3dbwNR1IdKeMLMDAADAHcUOAEDYW7BggbKzs3XZZZeFOhXV19dr1qxZslqt2rhxo6qrq3XmzBkVFxerpKREFoulS8xf//pXrVq1yjxnFCc2btyoxsZGvfvuu0pNTVV6erpOnz6tkpISnxY1NTCzAwAAwB3FDgBA2MvNzQ11CpIu3k7S1NSk999/X/v27dPPf/5zJSUlyWKxaOHChXr88cfV2NioPXv2qKCgQElJSTp9+rS+8pWvSLq4YOnQoUNVXV1tFj5GjRqlwsJC3XrrrbJYLKqtrTV3Y/FFT9ex7SwAAOiPKHYAAOAjY3cUSZozZ47bOWOXFklas2aNx+NVVVVd2jQWLjV4Kl4kJSXpgQce8ClHX2eDAAAARLPYUCcAAAAAAAAQTPHdbVXo7zaGxBEX7XFtbW2SLm6h6Ws74T4+p9PZp/0RR1xfxHV0dCg2lnp+X+jo6Ojx+Qn31wtxxBFHHHH9I06Smpqa/I6PlPER5y7e2zaAkbIlIXHE9WVcQkKCJCk5OdmndiJhfDExMZIU9nkSR5w/KHT0ndjY2G6fn0h4vRBHHHHEERf9cYaUlBS/4iNlfMR1xU+DAAAAAAAgqlDsAAAAAAAAUYViBwAAAAAAiCoUOwAAAAAAQFSh2AEAAAAAAKIKxQ4AAAAAABBVKHYAAAAAAICoQrEDAAAAAABEFYodAAAAAAAgqlDsAAAAAAAAUYViBwAg6mRmZurMmTOhTiOqnTp1SseOHdOIESNCnQoAAEAXFDsAAFFn9OjRcjgcevLJJ0OdStTavHmzJGns2LEhzgQAAKCr+IaGBq8nuzvXHeKIi9a4trY2SVJzc7PP7YT7+JxOZ5/2RxxxfRH3ta99Tb///e9VVlamP/zhD7JYLIqNpb4fDBcuXNCpU6f08ccfS5IWL17c4/MT7q8X4ogjjjji+kecJDU1NfkdHynjI85dfFpamteGvJ3rKQHiiIvWuISEBElScnKyT+1EwvhiYmIkKezzJI44f6SlpWnz5s164okn9Oqrr6q9vd3vfuFdXFyccnJy9J3vfEdjxozp9tpIeL0QRxxxxBEX/XGGlJQUv+IjZXzEdRXvdy8AAESAK664Qhs3bpTD4VBdXZ05M6snTU1NSklJ8bu/QONOnTql4cOH91l/lxqXmJioUaNGacCAAX63AQAA0FcodgAAolpSUpKuuOIKn6/v679UpKWladSoUX3WX6j+kgYAANCXuIEZAAAAAABEFYodAAAAAAAgqlDsAAAAAAAAUYViBwAAAAAAiCoUOwAAAAAAQFSh2AEAAAAAAKIKxQ4AAAAAABBVKHYAAAAAAICoQrEDAAAAAABElfhQJwAAAIDI9Oijj+qFF17ocryjo0Oxsf7/Ta2v49rb2xUXF9dn/fkSN3XqVD300EN+tw0AcBff0NDg9WR357pDHHHRGtfW1iZJam5u9rmdcB+f0+ns0/6II4444oiLnrgXX3xRZ8+e1eDBg92OB1IICEVcIIWOS+mvp7izZ89q7969euCBB7qcC6fnnTjiIjVOkpqamvyOj5TxEecuPi0tzWtD3s71lABxxEVrXEJCgiQpOTnZp3YiYXwxMTGSFPZ5EkccccQRF35xsbGxSklJUVVVld9to6sFCxboyJEjXT7n4fa8E0dcJMYZUlJS/IqPlPER1xVrdgAAAAAAgKhCsQMAAAAAAEQVih0AAAAAACCqUOwAAAAAAABRhWIHAAAAAACIKhQ7AAAA0C85HA6Vl5fLbreHOhUAQJBR7AAAAICki1v7hZrValVlZWWX45WVlR6P+9KGzWbT3LlzlZOTY/4zzg8fPlxJSUke26msrFR5ebn52LU44nA4tHz5crfzAIDwER/qBAAAABAelixZIovFojvuuEPXX399n/ZttVq1dOlS83FJSYnH60pKSlRcXKyamhpt2bLFPJ6bmytJKioqMo85HA5t2LBB8+fPV1VVlaxWq2pra5WXl2ee7y4fSSosLFR5ebmmT5+u7OxsHT9+XLNnz1ZmZqbKy8uVlZUV+KABAL2GYgcAAABMr7/+ul5//XVJ0lVXXaV58+bp+uuv15gxY3q135ycHFmt1i4FCYMxE8P1+IIFC7Rnzx7Nnz9fdrtdpaWlPvXlcDi0evVq7dmzR5Lc4goKCjR9+nSz8GIUXd544w2tW7dOGRkZqq6ulsViMWd6LFiwQBaLJfDBAwCCjmIHAAAAPPrb3/6mH/3oR5KkSZMmKT8/X5/73Oc0bty4Xu23pKTE48yO4uJit8dvvPGGbrjhBr/bT0pK0po1a1RUVKTS0lIVFRXJYrHIarXqlVdeMQsvrux2u3bv3u12zJgZ4u02GABA6FDsAAAACIG3335ba9euVVtbm88xHR0dio31f8k1X+Pq6uq8nvv73/+utWvXSpLGjh2refPmqa2tTU6n0+98elJcXOx1ZofBbrdr27ZtOnz4sDIzM7Vq1SrV1tZq9uzZ5jUlJSXKzMzU/PnzvfaVkZHRpVjReeaHJE2ZMkVlZWXatm2bWx8FBQVBL3Z0zjfQ572trU0JCQl+x13q62zcuHH67ne/q2HDhvndBgAEC8UOAACAEHjttdf03nvvKT093ecYp9OpmJgYv/vyNe7ChQs+tXf27Fm9+uqrunDhQkD5eFJeXu62Bkd3a3bk5ubqM5/5jCTpD3/4g/73f/9XQ4YM0datWyXJ660wnZ05c0aNjY0ez6WmpmrXrl3Kyspyu0WmsLBQhYWFfo/PHydOnHB7HOjzHmjR4lJeZ83NzTp69KgWLFhAsQNASMV7q+CnpaV1W933JtA4qfu/JgS7P8YX3Dipf4yvublZknTq1CkNGjSo1/rry7j29nZJ/eP566v+GF9w4yTGF8z+GF9w46TAx2fsfPKd73xH1113nd9xgfbXncLCQn344Ycez1ksFk2aNEm33nqrPve5zykmJkZLly71uUDiS9+FhYWy2+0qLi7WsmXLzMU/bTabNmzYoJKSElksFtntdj3++OO66qqrzPj3339f+/bt06JFi9zaNRYXzcnJ6dLn6dOnlZqa6nFmRmNjo+bNm2c+njJliln0KCoqUlJSklavXi1JWrFiRVBnd2zfvt3tcaDPe6Au5XW2dOlSvffeezp16pTPXxt8f/EuEvKMlPEZTpw4oY6Ojj7pLxKeh2geX/yoUaM8nmhoaJC3c90JNK6urq5P+2N8wY3rL+NLTk6WdHGbOl/aiYTxxcXFqb29PezzvJS4/vL67Kv+GF9w4xhfcPuLpPGlpaVJkoYOHepzG709vs63PAwdOlTXXXed7rzzTo+7s8THxwet2CH9c0eWiooKZWVluS1KunDhQs2ePVsVFRXKycnRsmXLtGnTJr/7MNYDKSoq0jvvvKP8/Hy382PHjpXkfWaHcatMb+7G0vm5iqSvv8TEREm+/6x0Kf3x/SW4/UX7+AwjR45URkZGr/fH8xfc/gKJ4zYWAAAAmDIyMnTttdfqnnvu0ZAhQy7plwp/lJeXa+/evaqoqNDGjRt1+PBh85yx9sa6deu0cuVK3XrrrVqyZImOHz+uO+64Q5mZmd1ulXvs2DHNnTtXkswChtVq1TvvvKPs7GzzutraWvNjTzM7JGnMmDEqKytjNxYACHMUOwAAACBJKisr08iRI83HlzJV3F+ua2EYa2942m52zpw5ki4uIpqRkWGu2SFJu3fv1mOPPWZea6z7UVFRoaqqKvO41WrVxo0bVVZW5vX2E28zO1yxGwsAhC+KHQAAAJAkt0JHX7Pb7br//vvdZnQYXBcrNXZFsVgsZnHkgQcekPTPQoir8vJyt8euhQ6LxaLKykqzfaPtzvFbtmxRbm6uMjIylJGR0eu7sQAALh3FDgAAAIScxWIxZ3QEU+edU3Jyctz6ycvL87hri1FA6bz7Sl/sxgIAuHT+70UFAAAAAAAQxih2AAAAAACAqMJtLEA/19DQIKfTGeo0AAAAACBoKHYA/ZyxkjwAAAAARAuKHQAAAAACdscdd+jkyZOSZM4WLSgoMM8/8sgjmjlzZkhyA9B/UewAAKAb69ev12uvvdbjdR0dHYqN9X8prAsXLig+3v+340D76+u43hzfiBEj9MgjjyglJcXv9hE8TU1N+vnPfx7qNKLCqVOnQp1CQO699179+Mc/djvW0dFhfnzNNdf0dUoAQLEDAIDu7Nu3T01NTRowYECoU4GLlpYWffjhh3r77bf1+c9/PtTp9FvDhw/Xxx9/rIqKilCnEjWGDBkS6hT8Nn/+fJWXl6u1tbXLuenTp0fkmABEPoodAAD0YMiQIXr66adDnQZclJaWaufOnaFOo997+OGHZbPZuhxvbm5WcnKy3+31dVx9fb2GDh3aZ/35Enf55Zf73W6oxcbGaujQoTp27FiXc/n5+SHICACk+IaGBq8nuzvXHeKIi9a4trY2SRd/WPG1nUgaH3HEEdc1jt2Kwtv58+e7PM+R8jpraWmR5HkMvdFfb8QlJiZq0qRJAbUbDhoaGpSWlhbqNLrw9DkPp+fdk9tvv11PPPFEl+Pjxo3zqa1wHx9xvRvX0tKiLVu26MiRI/r000914cKFgNrrTktLiwYNGqSvf/3riomJCWrbFotFGRkZuvvuu3XVVVeZxyPteYi2uHhv3+AD/eZPHHHRHJeQkCBJSk5O9qmdSBmfpIjIkzjiQhEX7B+IEFwDBw50e75C/XrxJ864NarzGHqrP+KI6824xYsXa+vWrW6/pH72s59VVlZWWOVJXPjFNTY26p577lF9fb0kadiwYebP3ME0cODAoLdp+OCDD/T3v/9d+/fv1/r16zV79uyIex6iMY7bWAAAAABcksTERA0bNkzHjx83j82fPz+EGSFSbNiwQfX19ZoyZYpKSkoi8laulpYWPffcc3rwwQdVWlqqL3zhC6FOCaLYAfQ79fX1+sEPftDl+JIlS8yPH3744YDuYQYAAP3X7NmztX37dvNxdnZ2CLNBpHjvvfckXdz9bOTIkSHOJjADBgzQv/7rv+rQoUN6+umn9d5777Ewbxjwfw85ABHNKGK8+eabevPNN83jro8pdAAAAH999atfVVxcnCTp6quvVkZGRogzQiSor6/X8OHDI7bQ4Wry5MmSpL/+9a8hzgQSxQ6gX7rlllsCOgcAAODNwIEDzQLHvffeG+JsECkuXLiglJSUUKcRFElJSZIkh8MR4kwgUewA+qVZs2YFdA4AAKA7xloF11xzTYgzAdDfUewA+qGMjAxNmTKly/EpU6Yw5RQAAARs8eLFuuKKKzR69OhQpwKgn2OBUqCfuuWWW3T48OEuxwAAQPR54okn9Pzzz/t0bUdHh2Jj/f+bqBHX2tqqu+++2+84f9x000368pe/7G+KAPoRih1AP3XLLbdo48aNXY4BAIDo89RTT6m+vl6pqal90t/Zs2d7re2mpibV1dVR7ADQLYodQD912WWXadKkSfr73/8uSZo0aZIuu+yyEGcFAAB6y9ChQ7V3795Qp3HJ/u3f/k319fWhTgNAmGPNDqAfc53JwawOAAAAANGCYgfQj7nuvMIuLAAAAACiBbexAP3Y+PHjNXr0aLW3t2v8+PGhTgcAAAAAgiK+oaHB68nuznWHOOKiNa6trU2S1Nzc7HM74T6+2bNnq6WlJezzJI64UMU5nc6A2kDfOH/+fJfnOVJeZy0tLZI8j6E3+iOuf8c5nU7FxMQE1EY4Mr43R9rzEO1xjY2Nfi2C29DQEJXvs8b390h7/qItLj4tLc1rQ97O9ZQAccRFa1xCQoIkKTk5udt22tra9PTTT+vAgQM6fvy4Wltb/ervUrd880dra6suXLigV199tU/6CyQuMTFRY8eOVXZ2tubPn68BAwb41V+kvc6IC6+4aPrlIBoNHDjQ7fkK9evFnzjje1nnMfRWf8T177ho+15mjCfSnodoj1u4cKFGjx6tOXPm6Oabb9bgwYN7jIu216Yk8/t7pD1/0RbHbSxAkLW0tOiee+7Rhx9+KElKTU31+5fzUGhsbAx1Cl61trbq6NGjqq6u1jPPPKOdO3eahScAnjkcDm3atEkLFiyQxWIJdToAgH6gtbVVr7zyil555RX96Ec/Uk5Ojln4GDZsWKjTQz9DsQMIsu3bt+vDDz9UZmamHn74YU2ZMiXUKUWFI0eOaOXKlfrggw/01FNP6d577w11SohAZ8+e7favTH3BZrNpw4YNKikpkSSVlpaqqKjIY0HCbrd3OV9ZWSlJysvLM9srLCzUsWPHzLji4mLdeuutGj58uJKSkrq063A4tHr1auXn5ysnJ8dsZ9++fVq0aJHZ5qpVq1RbW2vm2p3MzEyVl5crPT3dLefNmzdr1qxZyszM1OrVqzVt2jQzdwBA9Oro6NDrr7+u119/XWvXrtV1112nW265RbNmzdKoUaNCnR76AYodQJC9+eabkqRHH31UEyZMCHE20WPy5Mn6+c9/ri9+8Yv685//TLEDAfn+97+vgQMHau7cufrsZz+r9PT0Ps+hqqpKs2fPNosXGRkZ2r9/f8AFgKysLFVVVclqtaq2ttZsx+FweI3ZsWOHFi9erPT0dC1fvlxFRUWSpN27d+uxxx5Tbm6udu3apaSkJOXk5CgvL8/jTBHXAonBZrNp/PjxslgscjgcampqUnp6upKSkrRmzRpVVlaqvLxchYWFAY0XAAyLFy9WfHy8YmNjFRMTY/7f08dOp1NxcXGKjY01b6v19HHn+Pb2diUmJnpt1zXe9Xh7e7sSEhK8tuvt48bGRg0aNMjvz0tLS0tAs4qDEdfdTOFDhw7p0KFD+slPfqLJkyfr+uuv15e//GW/+wN8RbEDCLJjx45p0KBBFDp6wZAhQ5Senq4TJ06EOhVEKKfTqZdeekkvvfSSJGnGjBn60pe+pM985jMaOnRor/dvtVp1/PhxLVmyxDy2YMEClZaWaubMmW6zN1xnU+zZs6dLWyUlJeZsiqysLPO4MWvDiCktLTXPFRQUSJK2bNmixx57zDyekZGhuXPnKj8/3yxceCpk+OLtt9/Wtddea+YiyW12CbM6AASL0+nUhQsX5HQ61dHR4fav8zGn06n29nbzYwDRj2IHEGQtLS1KSUkJdRpRKykpye8FXwFvDhw4oAMHDkiSbrjhBuXn5+uKK64IaOGsntjtdm3dulXLli1z++XfYrEoPz9fpaWlWrFihZKSkpSXl6e8vDyfbmPpzJhBUVRU5BZrtVr1yiuvqLCwsMusCqvVqtdee83t2OnTpwMqANXU1HS57WXLli0er62oqDBvowEAfz3xxBMB3Q5x7tw5paamqqOjQ+3t7WZhxCiIeCueNDQ0aODAgW7FlO7ijceNjY1ucd314fr49OnTAd166XA4PN7C2BdxZWVlstvtHq+77rrrdMMNN2jo0KH6yle+orq6Om5nQa+i2AEA/cD+/fv1s5/9zO1YX+76cylxbW1tAS1I66m/Tz75xOv1r732mvkL/9SpU3XPPfdo6tSpfvfrid1u1/3336/8/Hy3WRiGnJwc1dbWavXq1WbBIxgyMjK6tOVpjY+CggItWLBA999/v9uMj5/85CdauHChDh8+bB7zVLgwYgoKCtyKKZWVlRozZkyvFjSWLVumuLg483Gg22uGIq69vV3SxcISgL7jettJfLzvvw6lpKT06e4TgRYDQrlLRkVFhVnsiI2NZYFShBTFDsAPxg+kgdw/CYTSvn379I9//MPth5hI+aUw0CKJp/58nRVUW1urP/7xj0pNTfW7X0+2bdum/Px8czaG3W5XcXGxli1bZhY/jHObNm0KynoWZ86c8Xrv9IwZM8wZJsaMD4vFoq1bt3a5dubMmZI87+7S3a0udrtdu3fvdiuUGHJzc4NW1InkmV7G67O5uTnEmQBAcCQmJmr69Ok+bT0L9DaKHYAfjGJHb0xxB/rCjh07zL8SRcL+6FJw/7L1jW98Q2+88YbH64cOHars7Gzl5+frC1/4gt/9dadz8WL//v2aPXt2l1kexq0rnWdTeFuzQ/rnbIrOTp8+rdTUVI8FhQMHDmjXrl3m44KCArfbXIzZH0uWLHFb8PT48eM+j/n999/XzJkzddttt2n+/Pnm8crKStXU1ARt9sq3vvUtTZ482Xx8/vx5DRw40O92Ao2rr68P6Haf8+fP609/+pOqqqo0ZswYv+MBIBxt3bqVn5MRNih2AD76+9//riNHjmjUqFF8EweihFHgWLRoka655hpJF4skvclms+nIkSNatmyZxy1gvc2w8EVJSYlKSkpUVFSkd955R/n5+W7nx44dK8nzzA7p4i0qW7ZscduNxXDmzBmvxZPOjFkdRUVF2r9/v6xWq3JycmSz2VRdXe3TVra+uvrqq3XjjTeajyOpGPePf/zD7zgACGf8jIxw4v+8YEQ8q9Wq5cuXd7stocHhcGj58uWyWq3dtvf8889LkvkXyZycnC7/jDasVqu5wN6hQ4c8XmucN9hsNm3evNl8/NFHH2nt2rU+jSFYHnnkEUnSd7/73T7rE0DwDR06VDfffLN+9atf6bnnntOGDRvMQkdvczgcqqqq0n333aekpCRzMdG//OUvstlsHq9fvny5+T3R+B7r+j3ZZrNp7ty5WrlypXbt2iWr1aqJEydKkrKzs83ramtrzY8PHDigGTNmKCcnR0uXLjWPGzM81qxZo2PHjrl9362qqtLkyZN9KnZs27ZN06ZNk8ViUV5enl555RXl5OTowQcfVElJiXkbDAAAQG9hZkc/UF5e7nFBuc7TogsKClRQUCCHw6ENGzZo/vz5ysrK0uLFi7Vz505lZ2crKSmpy4JztbW1ysjIkOT5L5KVlZU6ePCg2w/dnft1nYJt/FDfeetFSW4L50kyp2FPmTJFZWVlvfYD9AMPPKDDhw9r1KhR5v3rACLPD3/4Q11++eUh63/Tpk2aPn26LBZLl+9x+/fvd/s+Zpx33bHE+B5bXl6ulStXmtvOVlVVme1YrVZt3LhRZWVlXgsT3mZ2uHLdjaW8vFySb9vGdt4tprKyUlu2bFF2drbq6+u1bdu2oKxJAgAA0B2KHf1ET9v7GYvMSRe3LZw8ebLefvttZWVlKSsrS5MnT9a7776rnJwc1dfXa+rUqebuAsZ95T/84Q9VXFzs9sOw8UPvmjVrZLfb9Y1vfMO8vqSkRPfcc48SExPdtlc0GFsvuuZnLIJ3+PBh/f73v++yhWOwvfzyy/rhD3+o5uZmjRw5Ujt27Oi1vgD0vlAWOoxf+o3ic3FxsdsMDavVqv379+vWW2/V6tWrNW3aNK+z6goLC83ZHKtWrTLX/nAtdHQuqBhF4TNnzki6OEvk+9//vg4fPqzi4mKNHz9eGzdudHuvqKioMAsdvhQojFt0brrpJrMdT+PMyclRZmamWawBAAAItvju7k0O9L5l4sIrrqCgoMd2hg0bpjvvvNO8bvz48dq9e7dmzJihAQMG6JZbbpF0cRbHmTNnlJaWpri4OP34xz/W1q1bdccdd+jUqVOqq6sz+/noo4/0l7/8Rd/85jfV0NCguLg4/fSnP9WhQ4dUV1en22+/XYcOHdLBgwfV2NiotrY2NTY2mremNDQ06OzZs3rooYf0zW9+U3feeafZ9uWXX65vfetbamtrU1tbW0CfF0NHR4eampp07tw5nT17Vu+8845++9vf6uTJk+Y111xzjdauXdvj59FoL5CdI+C7jo4Ov78uIu3rNthxxtdJU1OT27Xhlmc4xjmdzoDa6My1gOuJcRufdLFA3JOsrCw9+eSTXdpwnV3nqU+LxaIHHnhAkrrMxPO0Vkh3hXKjIO762GjbW6HG9bbGYDh//nyX5zlSXmctLS2SPI+hN/ojrn/HOZ1OnT17VnfffXdA7YST48ePm1vGRtrzQFzXuGC9z4YT4/t7JD0P0RgX720RmUhZpZ+47uM6z77ozpQpU7RmzRqNGTNGEyZMUEJCghoaGtz2xH7xxRc1YcIE81h7e7sSExM1YMAAnT59WhMmTDDzTUlJUUJCQpcF7ZKTk5WUlGRel5iYqNTUVF122WUaNmyYeW1aWprS0tL0k5/8RBs2bFBeXp62b9/u8fYbX6dEd/58/vV7RlqnAAAgAElEQVSvf9VXv/pVr9dfddVVKisrU2trqzIzM33qg0JH74uNjfXr6yLSvm57Iy4hIUHSxa9L49pwzDMc4wLZLhd9Z+DAgW7PV6hfL/7EDRgwQFLXMfRWf8T177isrCy98cYbeu+99/xuJxwZaxNF2vNAXNe4aHyfNb6/R9LzEI1x3MYS5byt6r9582bNmjWry/Rho1qWlJSk+fPna+fOneatIna7XQcPHnS71eT999/X2LFjNWDAANXX1+vIkSNui91J/1xX4wtf+IKOHj1qbl1YUlKiadOmuW0Z6MpqtWr37t1asWKFHnjgATkcDqWmpmrXrl0aNmyY0tLS3G6/CURWVpZmz56tmpoanT17Vna7Xa2treb5v/3tb7rvvvv03//93wGttg8AABAOHn/8cZ//KtrY2KjU1FS/+zBm6v7gBz/Qz3/+c7/i/O0vNTVVJ06c8DdFAP0IxY5+wm63a9u2bVqyZInPa1xkZWUpNTVVe/fuVV5entvq+gZjdf9z587p/fffV1FRkTmF2WazuRVLDK6L17388ss6dOiQzpw5o71795rbIkoXpzoPGTJEGzZs0LJlyzzm6LqAXiCSkpK0fv36LsedTqcOHz6s733ve/rggw+0aNEi3X///fra174WcF8AAAChEhsbq8GDB/t8bSB/eY2NjVVFRYWOHj2qxsZGjR49ulf7A4DuMN++n3j//fclySw6NDU1ad68eR63hnW1ZMkSHTx40Lxnu/O938bje++9t0shxJuamhqVlJSovLxc1113nQoLC1VVVaVbb73VbNNo17j/27VYcv78ea1evVo5OTlauXKlpk6d6u+no0cxMTG65ppr9Oyzz2rr1q2Ki4tTWVmZfvKTnwS9LwAAgGjx0ksvSZIOHToU4kwA9HcUO/oBh8Oh3bt36/jx4+binykpKdq1a5esVqv5z9MidA6Hw5y94c3MmTN15ZVXavfu3bLb7d1ea7PZdPToUVVXV2vs2LGqqKgwiyzTp083rysvLzeP22w2bd682Tw3cOBArVixQlarVVVVVeaK/j31HagpU6bo8ccfV0pKirZv364PPvigV/oBAACIZOfOnTNvV/71r38d4mwQKWJjY9Xe3h7qNILCGAdr+IUHnoV+YO/evcrIyNC0adP0jW98w6eigM1m09y5c3X//ferrKxMVqtV06dPV05OjrkNoSRzAdSCggJ9+9vfVmlpqVlQ8aSqqkqzZ8+WxWJRXl6epk2bpo0bN2rBggVu16WkpGjIkCGy2WzasGGD8vPzvbZp9NebW9BmZmaai6Dy5g0AANDVr3/9a124cEGS9O6775qFD6A7FotFH3/8sc6dOxfqVC7Z0aNHJUmTJk0KcSaQWLMj6tlsNh05csRcN2Pq1Kn66le/qmPHjumxxx5zuzYzM1MFBQVau3atcnNztWvXLrcCgnGrizELZPLkyZowYYIefPBBDRgwQKNGjTKvMRYpLS4uNtuw2WxKSUkxb1Gx2Wz61a9+pbKyMlksFg0ZMkQrV65USUmJcnNzdccdd2jjxo0qKSkxb49JTU3VvHnzuozTtZ/ecuedd2rHjh168cUXzXVJAAAAcNGLL77o9vitt97SbbfdFqJsECmGDRumo0ePaseOHfrP//zPUKcTsOPHj+v555/XoEGDlJ2drTNnzoQ6pX6PYkeUM9a8cH1cVVXl9fqGhgaPxQRXntb3qKur6/a80bfr7i9ZWVlat26d25ZonXNbs2aN2+PCwkIVFhYGvGXRpRo5cqRqampC1j8AAOFkx44deu6557ocb29vV1xcnN/t9XVca2urEhMT+6w/X+JuuukmLVq0yO+2Q62xsVGnTp1yO/ab3/yGYgd6tGzZMh08eFCbNm1SVVWVrrnmmoC+LkPp2LFjOnz4sFpaWnTfffdp4MCBFDvCAMUOwA/Gzi8nT56k2AEA6PeeeuopffLJJ9yfHiQdHR165513IrLY8ctf/tK8hcXwl7/8RSdOnNDIkSNDlBUiwfjx47Vjxw6tWrVK7733nscCaiQYNmyYvv71r2vx4sWhTgX/H8UOwA9GlbmtrS3EmQAAEB6GDh2qPXv2hDqNqLBgwQIdOXIk1GkE5JlnnvF4/K233lJubm4fZ4NIM2HCBG3btk3t7e369NNPu12wtKmpSSkpKX738cwzz8jpdHbZXbInvvQ3ePDggHJC76LYAQAAACBgDodD9fX1Hs/t3r2bYgd8FhcX1+NMoEBvJ7darbpw4YLuu+8+v+K4fT1yUewAopCxS87hw4d7vLagoECFhYWqrKyUJOXl5clms2nfvn1atGiRrFarNm7caC4kCwAA4MrTLSwGq9WqkydPasSIEX2cFfBPTU1NevPNNyVJp0+f1pAhQ0KcEfoCxQ4gClksFm3dulXSxR8yamtr3absbd68WbNmzXJbMLa+vl6zZs2SdPFNwFifJCcnR2VlZSouLtayZcvcYgAAAKqrqzV8+HA5nU6dPXtWbW1tslgsSkhIkHRxG1qKHQill19+2fz4T3/6k/Lz80OYDfpKvOsuGq7S0tLk7Vx3Ao2T1Kf9Mb7gxkn9Y3zNzc2SpFOnTmnQoEEerwt0hfZQstvtampqUmZmpiSptrZWY8aMMc9bLBZt3LgxVOl10d7e7vfzGAmvs978+jNeuydOnLjk/sJxfMHsr3Ncd/cNI/Tq6+vdnq9Ien02NDRI6jqGnuLCaXze/pqPS9P5cx7u3z9//OMfm3FLly7Ve++9pxUrVujKK6/0KY9wH1+o4iTGF6z+XHd8/OMf/6gbb7yxV/szRMLzEM3jix81apTHEw0NDfJ2rjuBxtXV1fVpf4wvuHH9ZXzJycmSpOHDh3ttJ9IKHZJ05swZ7d27V1u2bOnx2tzcXK1YsUJJSUl9kJlncXFxfj2Pl/L6zMzMlNPplNPpNI8bj12Puz5ubGzU4MGDu1zjKdY1/tNPP1VKSorb9R0dHW5xnto4ceKERowYYZ7v6OhQTEyM2zXGLyQjR440PxeR9vXXV/11jovEr+n+ZOjQoW7PVyS9Po17wDuPoae4cBpffHw8BY9e0PlzHknfP43F3Lv7WSlY/YX6/aG34xhfcPprb2+X1Wo1H7/11lsaNGiQUlNTe6U/A89fcPsLJI7bWIAoVFlZqZKSErdjnR8/9thjkqTMzEyVl5ebFW+73a5t27ZpyZIlIS1o9OTzn/+82+POBQXjl31P57xd5+maaOJ0Os0ZHgAA7yLlvRBAz1566SW1trZ2OXb77beHKCP0FYodQBTKy8sz1+jwdc0Ow/79+7VlyxaPszwqKiqUk5PTe4n7obW11WOhwl/dxRvFEF+PXyrXNo2PXf83+jX+Gcc7OjoUGxvb5bhrWy0tLbpw4YIGDBgQ9Lz7g9OnT+uLX/xiqNOAi5aWllCngCCprKzUmDFjlJOT0+37k6f3MyNekk/bSXZu32q1aunSpW7XVFRUaPz48Ro+fLjHQofD4dDq1auVn59vvie6Luxts9lUWFioVatWhc17JtCfvfDCC12OVVdXU+zoByh2AFGutrbW52sdDodqampUVFSkG264wfxh0G63q7i4OKxWrv7tb3/r9su9pC6FAOPYyZMnNXLkyC7FgM4fdy4oNDU1uW011l2867HGxkalpaV121fnOCnwrc18mUb44IMP6ve//z23ZARg1qxZeu2113q8zig6+evChQuKj/f/7TjQ/vo6rjfHl52dralTp/rdNrxbsGCBMjIyNGfOHM2cOTPU6UjqWpDoPFPR9XhRUZGeffZZt93ICgoKJEmFhYXmMZvNpp07d2rZsmWyWq1uBRfp4vueNzt27NDixYuVnp6u5cuXq6ioSNLFLVYfe+wx5ebmateuXcwIAcKA0+nUn//85y7HX3rppYDf1xA5KHYAUa6mpkbTp0/36dq9e/dq7Nixmjlzptv03W3btmn27NlhtRPLuHHj/LreWHzVH/Hx8QEVH9ra2phBEUW+973v+XRdbxargtlfX8f19fhwadra2vTiiy/qxRdfVFxcnK677jrdcccduvnmmzV48OCg9GHMfDh27Jh5rKKiQtLF7SHnzZtnHjfWibJarT7P7Jg/f755f35OTo6sVqteeeUVn3LrvHV7aWmpea64uFg1NTXasmWLeSuoJGVkZGju3LnKz8/XokWLzDEaMz0AhM6rr76qxsbGLsc7Ojq0f/9+cydCRCeKHUAUs9lsOnr0qBYsWODTtdXV1SopKZHFYtHcuXM1b948HTt2TMXFxT5NDwYARA9jUT+r1aqSkhJdf/31uuWWW3TzzTdf0jaiWVlZbjsjGMUKSUpJSdGuXbu8FtdLSko8zuwoLi42P3Y4HDp69Ki+/OUv+52bsXW768yPpKQkM8fCwkK3GSLSxZknnWd/uW7hDiB0qqurvZ574YUXKHZEOYodQJSy2WxauXKlVq1aJYvF0u21drtdGzZs0LJly2SxWGS32/Xggw9KujhNfNOmTZo6dWpYzewAgGjxzW9+M9Qp+OT111/X66+/rnXr1mnSpEm67bbb+nwnFk/Fd9diiSS9++67Ki0tVWlpqXJzc3X77be7rUVlzMrIzc3ttq+RI0d2uRXF06yUgoICLViwQPfff7/bjA9jtoq/nE6nlixZIqfTqY6ODnNHrbi4OPOxJPPjzv9cd/FqbW1VfHy8W1u+xLqeNx4bbbpe6609IFzs378/oHOIDhQ7gCjkWujwpUCxbds23XXXXfrFL36hPXv2aMqUKSorKzOLJMZibHv27FFBQUGXv2oBAPw3c+ZMvfXWW34VDNrb2wNae8fXuCNHjuj8+fM9XvfRRx/p0KFD5mLR/uh8q4jk/TYWY70N10Wzu1uzw1hIuKCgQHPnztXOnTvNW1mk7hfodnX69Gk1NTV5PDdjxgxzxodxi4wxIyQYYmJi9Oabbwalre76kOS2uHXnda+M10tsbKzbdcYaB66PXV8DcXFxGjt2rC677LJeHQPQk/b2dj311FPm43vuuUcxMTHavn272zWsZxa9KHYAUSgrK0tPPvmk1/Od7yE2ihczZszQmjVrulyflJSkNWvWeDwHAAjMlVdeqZ/97Gd+xfT2mivz58/X0aNHPZ5LS0vT9OnTNWfOHE2fPl1JSUn68pe/LIfD4VcunQsDvtzGUlhYaC6WvWzZMvO8zWbThg0bzFswrVarnnvuOaWkpJixTz/9tCZOnOi2M4rdbldpaamKioo8zn6sra3V2LFjPeZ/4MAB7dq1y3xcUFBgFj0KCwvN2R9LliwJ+BbQP/zhD27Fh+bmZqWmpnYpLngqQLieP378uEaPHt2luNGTvl7bB+gNcXFxSk9PNx8bXx+uxxDdKHYAAADAo8GDB2vmzJmaM2eOrr/+eiUmJoYkD2NHloqKCmVlZbktSrpw4ULNnj3b3B59yJAh2rdvn999GDu+rFu3TtXV1Vq2bJnb+TFjxkjyPLNDknmrTDB2Y8nIyHB7HGgRISEhIaDdkAAgGvDdDwAAAKYRI0aYBY6RI0cG/XaEysrKLreieLuNJTMzUzfeeKNeffVVVVRUaOPGjW63v5SUlCgzM1Pr1q3TypUrdeutt2ru3Llu28B25y9/+Yu+853vaMqUKaqurpbFYlFlZaUmTpzoNrukpqbGLHZ4mtlh/G/MlGQ3FgAIPYodAAAAkCQ99NBDGjdunHlbRF1dXdD7yMvLc7u9w5/dWIzbXzpvNytJc+bMkXSx0JCfn69Zs2Zp586dkv45a0P65wKlU6ZM0bXXXmuu52G0e/DgQa1YscJr/t5mdrhiNxYACD2KHQAAAJAkXXHFFaFOoQtPC5oaXGeIGItrZ2VlmcWSBx54QNLFtUg6t1laWup2zLXQkZSUpPLycnNh1NzcXGVnZ5u7sNjtdn3/+9/X4cOHVVxcrPHjx2vjxo1u64IEuhsLACA4Ys6dOxcW+0NF+4JGjC+yGeNbt26dnn32WW3atEkTJ070eO1dd92l2NhYVVVV9XGW/cPcuXPV0dGhX//61z7H9JfXZ3cefvhh7dmzRzt37uxyL3i44/mLbIwvsvU0vnvvvVetra3as2dPH2YVvRYsWKAjR47oT3/6U1Da6++vz0jH+ILrrrvukiS/foa8FDx/oRfvLcG+XoWZOOIiIS4hIUGSlJyc7LUdY+ovek9sbKxfz2Okvc56I8547aakpJjXhmOexBFHXGTF8Z7XOzp/zsPteSeOuEiMk/z/GfJS+iMu9HG8QwEAAAAAgKhCsQMAAAAAAEQVih0AAAAAACCqUOwAAAAAAABRhWIHAAAAAACIKvGhTgAAgHDX2tqqJ598Um+88YZOnDihtra2Ltd0dHQEtDNFe3u74uLi/I4LtL++jvM0voSEBGVmZuqaa67RwoULlZyc7He7CB/19fWaPXt2qNOICg0NDaFOAQCiBsUOAAC60dzcrLvuukt1dXWSJIvFooEDB3a5LtAtOAMpdFxKf30d52l8DQ0Nqqmp0WuvvaY//vGP+u1vf6vExMSA2kdoTZgwQR9//LHsdnuoU4kal19+eahTAICoQLEDAIBubN26VXV1dbriiiv08MMPa/z48aFOKSrYbDaVlJTo7bff1pNPPqnFixeHOiUE4KGHHlJTU1OX442NjUpNTfW7vb6OO378uDIyMvqsP1/imOkEAMFBsQMAgG688847kqT169crKysrxNlEj6ysLD366KO65ZZb9MYbb1DsiFCJiYkeZ+XEx8crLS3N7/b6Ou78+fNKT0/vs/4CjQMA+I8FSgEA6MaxY8eUnp5OoaMXDB48WEOHDtWJEydCnQoAAIgyFDsAAOhGW1ubkpKSQp1G1EpMTPS44CsAAMCloNgBAAAAAACiSnx3W1wFuv0VccRFa5zx18fm5mav7cTFxXlcrA3B0draqoEDB/r9PEbS66w34ozXblNTk9u14ZZnOMYFuuUqfNfR0eHxuYrE1wtxxBFHHHHhG+ft/aa3+iMutHHx3hZJamhoCGgBJeKIi+a4hIQESRdXSvfWTmZmpl5//XV99NFHbB8XZOfOndPp06eVk5Pj1/MYaa+z3ogzXrspKSnmteGYZzjGUejofbGxsV2eq1A/78QRRxxxxEVXnOT5/aa3+iMu9HH8BAcE2dVXXy1JeuSRR0KcSfR5+OGH5XQ6dd1114U6FQAAAABhjK1ngSArKChQVVWVXnnlFd10000aMWKEx2354Lu2tjadPHlSjY2NGj58uBYuXBjqlAAAAACEMYodQJANHjxYv/vd7/Q///M/evXVV1VbW8tOA5coMTFR48aN01VXXaXCwkIlJyeHOiUAAAAAYYxiB9ALUlNT9d3vfjci7mXLzc1Ve3u7nn/++T7pLxRxAAAAAPoX1uwAAAAAAABRhWIHAAAAAACIKhQ7AAAAAABAVKHYAQAAAAAAogrFDgAAAAAAEFUodgAAAAAAgKhCsQMA0G98+umnoU7BTXl5uaxWq/m4srLSfNz5nMPh0Nq1a2Wz2cxjdrtdy5cvl91ud2vXarUqJyfHp39Wq7VLO5s3b5bNZpPD4dDy5ctVWVnZm58GAACAoIsPdQIAAPSV4uJinTx5UjNmzNA999yjkSNHhjolSReLE0uXLu1yfMuWLZKkiooKZWdn+9yeUcSQLhYuZs2apaysLEkXCyTbtm3TkiVLlJSUJEmy2WwaP368LBaLHA6HmpqalJ6erqSkJK1Zs0aVlZUqLy9XYWHhpQ4VAACgT8Q3NDR4Pdndue4QR1y0xrW1tUmSmpubfW4n3MfndDr7tD/iQhNnvHabmprcrg23PHs7rrW1VTabTTabTTt27NCYMWOUk5Oj/Px8XXbZZR7jOjo6FBsb3ImQrsWNLVu2KDc3VwcOHNDevXvNnMrLyzV9+nTl5ORIujizw2C323X//ffr8OHDkqQ9e/ZIknJzc7VixQqziOGrt99+W9dee61bP65t5OXlBThS33R0dHh8jkP9eiGOOOKIIy664ry93/RWf8SFNi4+LS3Na0PezvWUAHHERWtcQkKCJCk5OdmndiJhfDExMZIU9nkSd2lxxms3JSXFvDYc8+ztuLi4OPPjjo4O1dTUqKamRr/73e90+eWX63Of+5zuuOMO8xd/SUEvdEgXZ15UV1fr/vvv17e//W1lZ2dr9erVZtHCsGXLFhUXF2vMmDFmcWTXrl0qKCjQ1q1bZbfbVVpaqqKiIknStm3bAsqnpqZGJSUlXfr2pKKiwizABEtsbGyX5yocXi/EEUccccRFT5zk+f2mt/ojLvRx3MYCAP3I+vXrNXDgQEnShQsXFB/v/9tAX8edP3/ezPlS+/vggw+8Xv/RRx/po48+0m9/+1uNGTNGn/vc5/SVr3zF7359debMGdXX12vlypVav359t9fm5OTowIED2rBhg+bPn2/ekiJJGRkZSkpKMmdkOByOLoWTxx57rEubRjHDmA1i3KJSWVlpzi7pS7fddpvbY6fTaRZjJbl9bJx3ZZzvHOctvjOn0+m1sNVdbHt7u9fXtZGjp3jXGUPdtd/5XOeZRj2NyzjvaYZSTExMl89j5/Pdfd1213dHR4dbcbG7eNccjDx9HVfnOF9ycz3f1tZmFoO7a7/z56m710t3/Xf3eukutr29XXFxcV3Odfdaj4mJUVtbmxITE72e7/w1Znz9dM7TuNb166tzrPF6MT6fns57i29vb1dCQkKP7Xceh/H+4O28tzEbz3vnvry1YfzvOj5P513H6SnOW3+u/7t+DpqampSamtrlOuMab+20tLRowIABXs97i3d9vXh6fXj7/LS0tJizAXv6HLr+f/bsWQ0ePNinz4Xr/5768zUe/QvFDgDoBywWiyTp5ZdfDnEmkSExMVETJ05UcnJyr/Wxb98+DRkyRF/72tdUWVmp1NRUVVdXm8+VdPF2l9raWr/aNdbZWLNmjSTf1uww2O127d6927w9xlWgt8j46uTJk73SLgAAhssvvzzUKaAPUewAgH7ga1/7mqZNm+Z2LNAZE30dV19fr6FDhwalv40bN+ro0aMer588ebJuv/12DR48WDfffHOvFjpsNptOnDihq6++Wunp6Vq2bJlWr16t2bNnd7m2uLjY7fH58+e1fPlyt5kbrrecvPHGGyorKzMXGz1x4oTPeb3//vuaOXOmbrvtNs2fP988XllZqZqaml4rdEgXiz+uGhoalJqa2uU6bzM3DI2NjUpJSem2L0+zGRobG5WamtrtTIfO8TExMTp+/LgyMjJ6bL/zOaM/X3Jz5e3z0lMbxl+Ie2q/8/kTJ050WcjXl/E1NTV5fB566t94/rp7jr2NLyUlxe/xnTx5UiNGjPB4vrvZHZc6Pn9ydO3PW/ueZslI3Y+vu357e3ydP7eBPn+nTp3S8OHDfcrP9Vxzc7PH7/E9fX6bmpq6fW/wFm/05+/4Pv30Uw0bNszM4VLG58v3tu7G1118c3Oz2/utt6/fzm10fn/vrefPNW7ixIndXoPoQrEDAPqBIUOGaPr06W7HIuFeS0mqq6vTqFGjgtLf1q1b3R5fe+21uuOOO3TjjTdq9OjRZlxvFjoMeXl5qq6uluQ+G8Nms2nfvn1atGhRl5jGxkYtWLDAbUHTgwcPavHixW63thgcDocaGxuVnp7eYz7GrI6ioiLt37/f3L7WZrOpurq6y5oewTZo0CC3xzExMQG9XgK5H1uS4uPjA4pzOBwaMmSI33EDBgwIqL+kpKQ+/frr6OjoUszpzf76Oi4+Pj5o31/CMW7gwIFRPb7BgwdH9fiC+f4XjnGRMj5ELoodAIB+JScnR7fddptuvPFGZWZmhiQHozBhFDsqKyu7FBNc19n47ne/q0ceeUQVFRXm7Sk2m01HjhxRYWGhfvOb33i8LWX//v3KyMhwuzXGm23btmnatGmyWCzKy8tTeXm5li5dqilTppgzRQAAACIFxQ4AQL+xevVqtynd4SIvL095eXmy2WzasGGDvvSlLyk9Pd1tkdC7777b/LiyslK7d+82ixBz587V0qVLtWrVKrOQUllZqYMHD2rFihU99l9ZWWnmYTzesmWLsrOzVV9fr23btpkLmAIAAEQCih0AgH4jHAsdDofDXIMjNzdX69evV1JSkjmzIjMzU+Xl5WYRo7y8XJL7LTlZWVmqqKjQ6tWrlZGRobFjx5qFjp7W2TBmiNx0001mcaW4uFhWq9W8xrilpXMuAAAA4YpiBwAAIWLMlpgxY4Z5e4rrOU+zKbzNsDDW/TAYszQ6s1gsbm1kZWXpgQcekCS3AoernJwcr+cAAADCkfcNwgEAAAAAACIQxQ4AAAAAABBVKHYAAAAAAICoQrEDAAAAAABElZhPPvnE6elEWlqaGhoa/G4w0LhA9XWejC+4Im18ZWVleuGFF/Too49q/PjxvdZfX8YtXLhQkvvODr3ZXyjiAsX4wiMuUMHK8z/+4z8UFxenqqqqYKaH/2/u3Llqb2/XE0884Xac12d4xAWK8YVHXKAYX3jEBYrxhUdcoBhf8OJinE6nx2JHQ0OD0tLS/E4i0Li6ujqNGjWqz/pjfMGN6y/jW7VqlZ555hlt375dV111VdjlGUhcbm6u2tvb9fzzz/dJf6GI6y+vz77qr7+Nb+7cuZJEsaOXePv88voMjzjGF9z+GF9w4xhfcPtjfMGNY3zB7S+QOG5jAQAAAAAAUYViBwAAAAAAiCoUOwAAAAAAQFSh2AEAAAAAAKIKxQ4AAAAAABBVKHYAAAAAAICoQrEDAIBuxMfHq7W1NdRpRK0LFy4oPj4+1GkAAIAoQ7EDAIBujBw5UvX19frkk09CnUrUaWpq0qeffqrhw4eHOhUAABBlKHYAANCNCRMmSJLWr1+vxsbGEGcTPZqamrR27Vo5nU5NmTIl1OkAAIAow7xRAAC68fWvf13PPvus/vznP2v27NmaOHGikpOTQ51WRDt//ryOHj2qtrY2paena8G4pdoAACAASURBVNGiRaFOCQAARBmKHQAAdGPYsGH63e9+p9LSUh0+fFj/+Mc/1NbWFuq0IlpiYqIyMzM1adIk/dd//ZfS0tJCnRIAAIgyFDsAAOjB4MGD9aMf/ajbaxoaGgL6pb2urk6jRo3yOy7Q/vo6LtDxAQAAXIqYc+fOOUOdhBT4D1GRgvFFNmN869at07PPPqtNmzZp4sSJoU4rKObNm6eOjg7t3r071Kn0mv7y+oxWjC+yMb7IxvgiG+OLbIwvsjG+0Iv3lmCk/MWIOOL6Mi4hIUGSlJyc7FM7kTC+mJgYSQr7PIkjjjjiiCOOOOKII4444nzFbiwAAAAAACCqUOwAAAAAAABRhWIHAAAAAACIKhQ7AAAAAABAVKHYAQAAAAAAogrFDgAAAAAAEFUodgAAAAAAgKhCsQMAAAAAAEQVih0AAAAAACCqUOwAAAAAAABRhWIHAAAAAACIKhQ7AAAAAABAVIk5d+6cM9RJSFJDQ4PS0tJCnUavYXyRzRjfunXr9Oyzz2rTpk2aOHFiqNMKinnz5qmjo0O7d+8OdSq9pr+8PqMV44tsjC+yMb7IxvgiG+OLbIwv9OK9JRho8sQRF81xCQkJkqTk5GSf2omE8cXExEhS2OdJHHHEEUccccQRRxxxxBHnK25jAQAAAAAAUYViBwAAAAAAiCoUOwAAAAAAQFSh2AEAAAAAAKIKxQ4AAAAAABBVKHYAAAAAAICoQrEDAAAAAABEFYodAAAAAAAgqlDsAAAAAAAAUYViBwAAAAAAiCoUOwAAAAAAQFSh2AEAAAAAAKJKzLlz55yhTkKSGhoalJaWFuo0eg3ji2zG+NatW6dnn31WmzZt0sSJE0OdVlDMmzdPHR0d2r17d6hT6TX95fUZrRhfZGN8kY3xRTbGF9kYX2RjfKEX7y3BQJMnjrhojktISJAkJScn+9ROJIwvJiZGksI+T+KII4444ogjjjjiiCOOOF9xGwsAAAAAAIgqFDsAAAAAAEBUodgBAAAAAACiCsUOAAAAAAAQVeJDnQAAANGora1Nv/rVr/R///d/OnHihFpbWz1e197erri4OL/b7+joUGys/3+z6Ou4SBnf0KFDNXr0aN1333267LLL/I4HAADhhWIHAABB5nA4dPfdd6umpkaSNHjwYCUnJ3u8NpBCgKSAfqEPRVykjM9ms+nw4cPau3evNm/erGuvvTagdgAAQHig2AEAQJDt3LlTNTU1GjNmjB555BFNnDgx1CnBB3v27NGKFSu0atUq7dq1K+DCCQAACD3exQEACLK3335bklRaWkqhI4Lk5ubqX/7lX/TRRx/p008/DXU6AADgElDsAAAgyD7++GMNGjRIV155ZahTgZ9GjBghSaqvrw9xJgAA4FJwGwvQzzQ0NOgXv/iF+bipqUlOp1MbNmwwjy1evFhpaWmhSA+ICm1tbUpKSgp1GgiAscbIhQsXQpwJAAC4FBQ7gH4mLS1Nr732mo4ePep2/Je//KUkaeLEiVq2bFkoUgMAAACAoOA2FqAfuuWWWwI6BwAAAACRIOaTTz5xejqRlpamhoYGvxsMNC5QfZ0n4wuuSBtfWVmZXnjhBT366KMaP358r/XX23EfffSRvvWtb3k899Of/lSXX355UPsLdVygGF94xAUqlONbunSp2tvb9eyzz/rdDkJr/fr1+vWvf61HHnlEkyZN6rV++PoLj7hAMb7wiAsU4wuPuEAxvvCIC1Rf5hk/atQojycaGhrk7Vx3Ao2rq6vr0/4YX3Dj+sv4kpOTJUnDhw/3qZ1wHd+oUaM0btw4ffjhh27Hx40bp89//vNhk2ew4vrL67Ov+mN8PcfFx8ervb3d7zYQPoYNG+bT6yASX5/+YHzB7Y/xBTeO8QW3P8YX3DjGF9z+AonjNhagn/J0uwq3sAAAAACIBhQ7gH6KYgcAAACAaEWxA+inrr76ao0ePdp8PHr0aF199dUhzAgAAAAAgoNiB9CPuc7kYFYHAAAAgGhBsQPoxyh2AAAAAIhG8aFOAEDoTJ06VSNGjFB7e7umTp0a6nQAAAAAICiY2QH0c7NmzfJru1mgP2pubg51CkHlcDi0du1a2Ww2t+NWq1XLly+Xw+Ho03wqKytVWVnpdsxut+vb3/52lxwBAAB8wcwOoBe0tbXp6aef1oEDB3T8+HG1trb6Fd/R0aHYWP9rkYHEORwOtbe3Kz8/v0/6CyQuMTFRY8eOVXZ2tubPn68BAwb43SdwKZ544gkdPHhQX/rSl3TDDTdo7NixoU7pkjgcDqWmpiozM9M8ZrfbtXXrVtntdr377rvKycnps3zq6+s1a9Yst2Pbtm2T0+lUVVWVCgsL+ywXAAAQHSh2AEHW0tKie+65Rx9++KEkKTU1Nax/OXc6nZKkxsbGEGfiXWtrq44eParq6mo988wz2rlzpxISEkKdFvqZI0eO6MiRI5KkCRMm6Ctf+YqmTZumcePGhTgz/5SXl2vLli2SZP6/ceNG/fGPf9TChQs1fvx4lZaWavz48bJYLH63b7VatXTp0h6vq6iokCTz2scee0ySVFBQYBaTysvLVV5eLqvV2qfFFwAAEPkodgBBtn37dn344YfKzMzUww8/rClTpoQ6pahw5MgRrVy5Uh988IGeeuop3XvvvaFOKaqcOXPG52sbGxt14cIFv/sINO7s2bMaOHBgn/XnKa7zbR3/+Mc/tG7dOknS2LFj9e///u+aOHGisrOzA8q1LxUWFiolJUWzZs1SVlaWHA6HVq9erWnTppkFhfz8fJWWlmrFihVKSkryq/2cnBxZrVafr6+oqFBtba3y8vIkXbyl5eDBg1qxYoUkacGCBSouLtaQIUOUlZXlVy4AAKD/otgBBNmbb74pSXr00Uf/X3v3H1tVff9x/EV/3l568SJCaWHKtbggVgq7ikZUvvyYModrhgTQCSUK6LaUxWRoGAEFbdTVDLFxCsVGYCqTyrym0eo0zG12bunNIpNuy4JXKrQCQpveUi8tvf3+QXpDobe99/b2nntOn49kWbnnvD6f98d7reXdcz5HkydPNrga65g6daq2b9+u73//+/rrX/9KsyOO/v73v+tnP/uZ0WWYVkNDg5577jlJ0vjx47V06VJ1dnYaXFV4LS0tOnPmjBobG3Xw4EFJ0syZM0PNBkmhpkdFRcWQ30Ly2WefqbCwUOXl5Zo3b57q6+t7NVmcTqe2bNmisrIyrVu3LqarTQAAwPBDswOIs6amJo0aNYpGxxC4/PLLNXr0aB0/ftzoUizls88+kyRdd911EZ3f1dWl1NTUqOeJNdfR0aGMjIyEzddX7sSJEzp58uSA2dbWVh04cEAdHR1KS0vMf2I9Ho+2bNkS0bm5ubl6+OGHdeWVV4aaCUVFRWppaVF5eblWr14tm82m8vJy3XLLLUPe6OhpvEyYMEGSdPXVV2v9+vWqrKwMXXni9XpVW1ur0tLSIa0FAABYS5rf7w97sL9j/SFHzqq5nt/Wtre3hx3n22+/1ciRI2OaAwOz2WwKBAJRv49m+pwlOnf27FlJ5/dtiKU5MNT8fr8cDoehNezYsUOvv/56n8dGjhwpl8ulu+++W/Pnz1dqaqp+8pOfJOzqjqKiol5XZQzk4ubI/v37tXnzZknnmw+PPfaY1q5dm5A9Mpqbm/X+++/32kOkZy8P6fyeHZIM2aC0v+/zFzPTv+/kyJEjR47ccMmlhfsBMtYfLsmRs3KuZ1NMu90edpxYnk6C6KSkpET1Pprtc5boXM8Gug6HI6Jmh9nWF4/cxVeWOBwOTZ48WUuWLNEdd9xxSS6Zvw/0NEe8Xm9or4yWlhbV1dWprq5O27ZtS9itIi6XS9XV1WppadGePXtCV5bU1tZq8eLF2rFjh2Ebk/b3ff5CyfD5JEeOHDly5MhdKnl/GgMAIImMGjVKbrdbv/nNb/SnP/1JO3fuDDU6zGrLli1auHChDh8+rBtuuEHbt28PNToqKyvl8/kSVktdXZ1mzZolj8ejkSNHqqqqKtTo8Hq98ng8CasFAACYH3t2AAAwgKVLlxpyK0W89Tx5paamRpK0adOm0JUdtbW1vc7r2RvH5/Pp8ccf1+bNmwd8GorP51NJSYmampoGrCU3N1c//vGP9dvf/laStGDBAm3fvl02m02VlZW9zj169GhU6wQAAKDZAQDAAMaNG2d0CXFhs9lUWlqq0tLS0G0sPa9//fXXmjVrVujcBQsWKDc3V4FAQL/+9a8j2suj57aUaDz44IOh21h6jBkzRosXLw79OTc3N7R/BwAAQCRodgAAMAy53e5Q4+LCJsjFep7asmvXriGrxel09rpyJtpNVwEAAC7Gnh0AAAAAAMBSaHYAAAAAAABLodkBAAAAAAAshWYHAAAAAACwFJodAAAAAADAUmh2AAAAAAAAS6HZAQAAAAAALIVmBwAAAAAAsJQ0v98f9mB/x/pDjpxVc52dnZKk9vb2sOMEg0GlpNBHHErBYDDq99FMn7NE586ePRv6OjU1dcjnGw65YDAYUx7Jo7/v8xcz2+eTHDly5MiRGw65NIfDEXagcMcGKoAcOavm0tPTJUl2uz3sODQ6hl5KSkpU76PZPmeJzmVmZkqSHA5HRM0Os63PiBzfB8yvv+/zFzLj55McOXLkyJEbDjl+GgMAIM5ycnJ08uRJNTc3G10KotTa2ipJcjqdBlcCAAAGg2YHAABxNmHCBHV3d2v37t1Gl4IotLW1yev1ymazaezYsUaXAwAABiHN6AIAALCalStXyuPxaPfu3aqrq9P06dOVnZ1tdFnox5dffqlPP/1Ura2tWrt2rWw2m9ElAQCAQaDZAQBAnF155ZXauXOnnnrqKdXX16u+vt7okhCBjIwM3X///SouLja6FAAAMEg0OwALamlpUVlZmdatW6ePP/5YW7ZsCR0rKCjQtm3b5HQ65fP5dODAARUWFuro0aMqKiq6ZCyfz6edO3fK7/eruLhYbrc7kUsBTGvGjBnat2+fTp48qePHj6ujo6PP806dOqUxY8ZEPX57e7vsdrshuccee0yS9Oyzzw6YM8v67Ha78vPzQxv2AgAAc6PZAViQ0+nUunXrVFZWpvz8fG3atElFRUUKBAKqqKhQS0uL9uzZo3nz5kmS3G63amtr5fF4+mx45Ofn67777tPWrVt1+eWXy+VyJXpJgCmlpKQoJydHOTk5Yc9pbGxUXl5e1GMbuQt6z5OpbrjhhgFzZlofjQ4AAKyDZgdgUU6nU6WlpfJ4PJKk8vJyfe973wt7/urVq/X222/r6aefVlVV1SXHX3zxRUlSdna2SkpKhqZoAAAAAIgDmh2ABXm9Xu3fv18bN26MOGOz2bRs2TJJ0vr160Ov91wFsnr1ajbsAwAAAGAKNDsAC3K73Tp69KgqKip05ZVX9nvuuXPntGHDBtXU1GjHjh2m2ZPjtttui/jcYDColJTon7Td3d2tESNGJH1usOvr7OxUd3e3gsGgUlNTox4HAAAASDY0OwCL6tl7o+c2lnDS0tJUWlqqmTNnhs6/cEPTn//850NX5CC0t7cbXYKlxNJkAQAAAJIVzQ7Aonw+n/bu3SuXy6WsrCyNHDlSo0ePHjBXVFSkO++8UxUVFVq+fLlsNpsqKioUCASS6jaWffv2RXzuiRMnNG7cuKjnOHPmjEaOHJn0ucGub9++fXrzzTdjujoEAAAASEY0OwCLOn36tKZOnSrp/KMfDx8+rLvuumvA3IcfftjrCQs2m00jR45Uc3OznE7nkNUbrauvvjric202m2meBhFLbrDri6QJBgAAAJhJmt/vD3uwv2P9IUfOqrnOzk5J52+hCDdOrPsnxFttba1uueUWud1ueTye0NNUNm7cKJvNppKSEvl8vksyknTrrbf2en3MmDE6ePCgJGnv3r165JFHDL3KIxgMRv0+mulzlujc2bNnQ19HumeHmdZHLv657u7uqMYx2/rIkSNHjhw5cubPpYX7LaJZfqNJjlwic+np6ZIku90edpxkaHQEAgFJUn5+vjwej/7xj3/ok08+0aFDh/Tkk0+GGh4X+/rrr0NPcPn66681b948FRQUaO3atdq1a5cmTpyonJwcw29nSUlJiep9NNvnLNG5zMxMSZLD4Yio2WG29ZGLf65nj5dIxjHj+siRI0eOHDly5s8Z/7cyAHHX0+yoqalRQ0ODSktLZbPZ5Ha7NXPmTL3++usqLi7W4sWLNWbMGEnnb3VZtWqV3n//fc2aNUvjx4+X1+vVrl275Ha7NW/ePK1Zs0aFhYVGLg0AAAAABsSeHYAFOZ1OlZSU9Hms5yktDzzwQK/Xe/7scrlC51yc6+t1AAAAAEg2NDsAAEC/Ojo61N7eHrpNLxgMSjr/RJ8e6enpysjIMKQ+AACAi9HsAAAA/erq6tKiRYtCt8j1uP322yVJWVlZ+uMf/2hEaQAAAH1izw4AANCvrKws3XjjjWGP33zzzcrKykpgRQAAAP2j2QEAAAY0e/bssMfmzZuXwEoAAAAGRrMDAAAM6KabblJa2qV3v6alpWnWrFkGVAQAABAezQ4AADAgh8Mht9t9yetut1ujRo0yoCIAAIDwaHYAAICI9HW7CrewAACAZESzAwAAROS2224LPX5WklJSUnTbbbcZWBEAAEDfaHYAAICIjBs3TgUFBaE/FxQUaNy4cQZWBAAA0DeaHQAAIGJz587t82sAAIBkMuLYsWPdfR1wOBzy+/1RDxhrLlaJrpP1xZfZ1rdt2zZ9+OGHev7555Wfn9/nOQ8++KBSU1NVXV0d8zwIb+HCherq6tIrr7wy5HOZ7fMZ63xvvPGGXn/9db399ttKTU2NOBfrfIkyXN6/ROeOHTumhx9+WJL08ssva8KECVGPFc18yZ6LFetLjlysWF9y5GLF+pIjFyvWlxy5WCWyzrS8vLw+D/j9foU71p9Yc42NjQmdj/XFNzdc1me32yVJY8eODTtOJH9ZxOCkpqZG9T4Ol89nrPM5HA5JUl5eXkSfX7OtL9lzZltfXl6eJk+eLEm68cYbB8yZbX3RYn3xnY/1xTfH+uI7H+uLb471xXc+1neptKhnAQAAwxpPYAEAAMmOZgcAAEOgs7NTb7zxhv72t7/p+PHj6ujo6PO8rq6umK4ICwaDvZ6MkshcZ2enJOmdd94ZMGeW9Y0ZM0YTJkzQT3/6U33nO9+JOg8AAJILzQ4AAOIsEAjo3nvvVUNDgyTpsssuC90Gd7FYb32L5S/08cqlp6dHnDPL+nw+nz7//HO9//77qqysVGFhYUzjAACA5ECzAwCAONu7d68aGho0ceJEPffcc7rmmmuMLgkRqKmp0caNG7V582ZVVVXF3DgBAADG47/iAADE2cGDByVJZWVlNDpMZMGCBbr11lt15MgRffPNN0aXAwAABoFmBwAAcfbVV19p1KhR+u53v2t0KYjSuHHjJEmnTp0yuBIAADAYNDuAOEtPT1cgEDC6DMvq6OiIar8AwAidnZ2y2WxGl4EY9Owxcu7cOYMrAQAAg0GzA4iznJwcNTc368iRI0aXYjmtra06ffp06DevAAAAANAXmh1AnF177bWSpOeee87gSqznmWeeUXd3t6ZPn250KQAAAACSGE9jAeJs5cqVqq6uVm1trW6//XaNGzdOGRkZRpdlap2dnTpx4oTa2to0duxYFRcXG10SAAAAgCRGswOIs8suu0x/+MMf9PLLL+vTTz/V0aNH1dnZaXRZppaRkaFJkyZpypQpKikpkd1uN7okAAAAAEmMZgcwBLKzs/XLX/5Sfr9fDocj6nwic263W5Lk9XoTMp8ROQAAAADDS5rf7w97sL9j/SFHzqq5nis02tvbIx7HTOsjNzxzZ8+eDX3d8ySKoZxvOOSCwWBMeSQPvs+TI0eOHDly5s6lhfstqVl+Y0uOXCJzPY88tdvtEY1jlvVJMkWd5IYml5mZKen8ZyCSZofZ1mdELiWF/b/Nzmrf58mRI0eOHLnhluOnMQAAAAAAYCns2QEMcyNHjlR3d7fRZQAAAABA3NDsAIY5u92urq4uo8sAAAAAgLih2QEAgAUFAgE9+eSTqqmpGfDcHTt2hJ7MJEkej0cTJ07s9drFY2/dulXLli3T6dOntWbNmtCx3NxclZeXy+VyqaWlRXv27NGSJUv05ptvavXq1bLZbH2OJZ1/klVJSUksywUAAOiFZgcAAAPYu3evTpw4ofvuu09XXHGF0eVELDs7W1VVVXK5XGHP8Xg8khRqTKxevVqS1NzcrOLiYn3++ee9zi8oKNC2bdv0yCOPaOvWrXK5XFq5cmWoSVFZWalvv/1W5eXluvvuuyVJl112mW655RY9+eST2rhx4yUNj+zsbC1fvlwff/yxPB6PioqK4vbPAAAADE80OwAAGMDJkye1a9cu7dmzR1dddZVuvvlm3XvvvZowYYLRpQ2Z0aNHa9euXb1eCwQCqqiokCTZbDatX79eXq9XJ0+eDDVNwnG73Wpubtbbb7+tsrKyS46/+uqrks43U2bPni2n0xmnlQAAgOGIZgcAABEKBoPy+Xzy+Xx64403dNVVV2nmzJlasmSJxo4da3R5Yfl8PpWUlKipqSn02oIFC7Rx48aYxjty5Ig2bdqkLVu2RJWbP3++JGnZsmW9Xq+srNScOXP6vQIFAAAgGjQ7AACSzv/lNxLd3d0aMWJE1OPHmgsGg0pJif5J6fGss729vc9zjxw5oiNHjmjfvn3KzMzUTTfdpIceeijqORNh0aJFeuCBBySdb37s3bs35rGuuuoqFRcXq6ysTHfdddeA51dXV+vpp5/udbsLAADAUKLZAQDD3A9/+EN98MEHEZ8fa/Mh1ty5c+eUlhb9f67iWWcwGFQgEOg3d/bsWf35z39WbW2t7Ha7MjMzo547mQQCAW3YsOGSDU4LCgq0fPlyud1uud1ueb3eAcdauHCh3G63Dhw4cMlVJgsWLND48eOHZA0AAGD4otkBAMPchAkTVFVVFfH5fr9fDocj6nlizTU2NiovLy9h8/WVKy8vD+0p0ZfMzEzNnj1bd999t6ZPn6777rtPZ8+ejXruobR//369+OKLoT/3dyXPqVOnNG3aNJWWlqq0tDT0+oV7drS0tKisrExz5swJHZ84caJOnTrVbx0ul0vV1dW9nvji8Xh0+vRpbmMBAABxQ7MDAIAYjBw5UvPnz9cdd9yhwsJCnTt3LqbmSqJEehtLIBDQmTNnNHr06H7Ha25uVn5+vkaPHq22tjbV19dr2rRpA9ZRX1+vrKysXq9NnDhRR48eDfuoWwAAgGjR7AAAIEKjRo3SHXfcoblz52r69Om9blXx+/0GVtY/l8vV66oJl8ul9evX9zrH6XSqpKREPp9PbW1tlzwe9mIHDx7UmDFjQg2KNWvW6D//+Y+2bdsmp9OpqVOnqqWlpVfm+PHjeu2117Ru3bper19++eX64IMPNHv2bL300ktatmwZV3kAAIBBSevvh7NYf3AjR86quc7OTknnNyuMdJxkX193d3dC5yNHzoy566+/Xs8//7ymTp2qjIwMSVJHR4c6Ojr6zAWDwZjmjbe2tjYtXrx4wPN27NgR+rq6ulpTp07VoUOHtGbNmkvO7dmz49SpU5ozZ468Xq9eeOEFffTRR2pubg49paWvR8f++9//1ubNm0PHesZ/4YUX1NbWpkOHDik7O3vAq0oSwUrf58mRI0eOHLnhmEsLd8ltou/JJkfODLn09HRJkt1uj2gcM6yv56kTyV4nOXJG5v7v//4vqlwsG6MOhezsbFVVVfV7lYTH4wl93XNVx5133imbzXbJ5qM9e3acPXtWZ86c0eHDh3XgwAFt375dNptNTqdTxcXFeumll9TW1qaamhqtXLlSNptNp0+f1j333CPp/IalY8aM0UcffRRqfOTl5amkpER33nlnn42SRLPS93ly5MiRI0duOOa4jQUAAAuy2WyX3KrSl6KiotDXfd3ecvGYPY+O7fn/+fPn9zqn5yktknptbnrh69XV1ZeM3bNxKQAAQDwkx6+eAAAAAAAA4oRmBwAAAAAAsBSaHQAAAAAAwFJodgAAAAAAAEuh2QEAAAAAACyFZgcAAAAAALAUmh0AAAAAAMBSaHYAAAAAAABLodkBAAAAAAAshWYHAAAAAACwFJodAADEWU5Ojk6ePKnm5majS0GUWltbJUlOp9PgSgAAwGCk+f3+sAf7O9YfcuSsmuvs7JQktbe3RzxOsq+vu7s7ofORIzcccuPGjVN3d7d2796tX/ziFzGNhcRra2uT1+tVZmamsrKyLPN9nhw5cuTIkRuOuTSHwxF2oHDHBiqAHDmr5tLT0yVJdrs9onHMsL4RI0ZIUtLXSY6cmXKrV6/Wu+++q927d6uurk7Tp09XdnZ21GMicb788kt9+umnam1t1dq1a3XFFVdElDPj55McOXLkyJEbDrm0qGcBAAD9uvLKK7Vz50499dRTqq+vV319vdElIQIZGRm6//77VVxcbHQpAABgkGh2AAAwBGbMmKF9+/bp5MmTOn78uDo6Ovo879SpUxozZkzU47e3t8tutyd9zizrs9vtys/PV2ZmZtRZAACQfGh2AAAwRFJSUpSTk6OcnJyw5zQ2NiovLy/qsc1w+ahkrvXR6AAAwDp4GgsAAAAAALAUmh0AAAAAAMBSaHYAAAAAAABLodkBAAAAAAAshWYHAAAAAACwFJodAAAAAADAUmh2AAAAAAAAS6HZAQAAAAAALCXN6AIAJJbf79fOnTtDfz5z5oy6u7u1devW0GurVq2Sw+EwojwAAAAAGLQRx44d6+7rgMPhkN/vj3rAWHOxSnSdrC++zLa+bdu26cMPP9Tzzz+v/Pz8IZtvqHMlJSX68ssv+zw2adIklZeXx3U+o3OxYn3JkYsV60uOXKxYX3LkYsX6kiMXK9aXHLlYsb7kyMWK9cUvN6K7u7vPZoff74/pN7ux46b/eQAADCpJREFU5hobG5WXl5ew+VhffHPDZX2bN2/WO++8o9dee01TpkxJujojze3YsUPbt2/v89hDDz2kNWvWxHU+o3PD5fOZqPlYX3xzrC++87G++OZYX3znY33xzbG++M7H+uKbY33xnS+WHHt2AMPQ3LlzYzoGAAAAAGZAswMYhiZPnqxJkyZd8vqkSZM0efJkAyoCAAAAgPih2QEMU31dwcFVHQAAAACsgGYHMEzR7AAAAABgVTQ7gGHq2muv1YQJE0J/njBhgq699loDKwIAAACA+KDZAQxjF17JwVUdAAAAAKyCZgcwjNHsAAAAAGBFaUYXAMA406ZN09ixY9XV1aVp06YZXQ4AAAAAxAXNDmCYmzt3rs6cOWN0GQAAAAAQNzQ7gGFu3rx5+uabb4wuAwAAAADihmYHEGcdHR3avXu36urq1NTUpK6urqjHCAaDSkmJfkudWHLd3d3q6upSeXl5QuaLNZeenq6xY8dqxowZKi4ult1uj3peAAAAAMMDzQ4gjtrb27V06VI1NjZKkpxOp7KysqIeJ5YGQqy5ESNGKC0ttm8FiazT7/eroaFBXq9X7777rt566y1lZGTEND8AAAAAaxvR2trabXQR0vm/yDgcDqPLGDKsz9x61vfss8/qvffeU0VFha655ppLzqusrNTu3bt19dVX65lnnlF+fr4B1VqXz+fTo48+qi+++EIPPPCAVqxYEVFuuHw+rYr1mRvrMzfWZ26sz9xYn7mxPuOlhSsw1uLJkbNyLj09XZJkt9v7HOe///2vJOnXv/61XC5X1POgfy6XS88884yWLFmif/3rXxG/l2b7nJEjR44cOXLkyJEjR25wudiuQQfQp6amJo0ePZpGxxDKz8+X0+nU8ePHjS4FAAAAQJKi2QHEUWdnp2w2m9FlWF5WVpY6OzuNLgMAAABAkqLZAQAAAAAALIVmBwAAAAAAsBSaHQAAAAAAwFJodgAAAAAAAEuh2QEAAAAAACyFZgcAAAAAALAUmh0AAAAAAMBSaHYAAAAAAABLodkBAAAAAAAshWYHAAAAAACwlDS/3x/2YH/H+kOOnFVznZ2dkqT29vY+xwkGg0pJoYeYCMFgMKr30kyfM3LkyJEjR44cOXLkyA0ul+ZwOMIOFO7YQAWQI2fVXHp6uiTJbrf3OQ6NjsRJSUmJ+L002+eMHDly5MiRI0eOHDlyg8vxNzMAAAAAAGApNDsAAAAAAICl0OwAAAAAAACWQrMDAAAAAABYCs0OAAAAAABgKTQ7AAAAAACApdDsAAAAAAAAlkKzAwAAAAAAWArNDgAAAAAAYCk0OwCTaGlp0YYNG9TS0iJJqqyslM/nUyAQ0IYNG+TxeCLORjtXpOeUl5fL6/WqvLxcbrdbXq83wtUBAAAAQPzQ7ABMorm5Wfn5+XI6nQoEAjpz5oxGjx4tm82m0tJSSeebDX05fPiwxo8fL6fTGbd6Dh8+rJkzZ/Y5ZklJibxer9xud9zmAwAAAIBIpRldAIDIHDx4UIWFhZKkQCAgSbLZbKHjRUVFoa+9Xq/WrFlzyRivvvrqJa8VFBRo27ZtUTVCWlpaVFtbq9WrV6uyslJz5syRy+WSJP3vf//T448/rqamJknSjh07aHoAAAAASKg0v98f9mB/x/pDjpxVc52dnZKk9vb2PscJBoNKSRmaC6YaGhq0ZcuWXq/11byQzjcYem4h8Xq92r9/vzZu3NirOTIYdXV1WrhwoZqamnTFFVdo586dqqmpkSQtWLBAVVVVcZsrnGAwGNV7aabPGTly5MiRI0eOHDly5AaXS3M4HGEHCndsoALIkbNqLj09XZJkt9v7HGeoGh3S+VtDSkpKJEkej0cTJ04c8IqJlpYW7d+/X+vWrZPNZos4J0lHjx7VvHnzer22YMECrVu3TgcOHNBjjz2mBQsWaOPGjfrRj36k0tLS0L4hQ93okM7/s470vTTb54wcOXLkyJEjR44cOXKDy3EbC2AyPQ2Mzz///JJjPc0Hm82mQCCgsrIy1dTUhK66uFh/t7BMnDgx7LHS0tJQA+XixkZ9fb0qKipCt7Fs2rSp1y02AAAAADDUaHYAJnP48GHNnj1bP/jBD7Rs2bLQ6x6PRw0NDaHmQ0VFhb766istXrxYjzzyyCVXdrS0tKisrCymGnw+n0pKSkINjQsVFBTod7/7XVw3QwUAAACAaPA0FsBEeq7qWLRokbKyskL7cvh8Pn300Udavny5JIVe37x585DUUV1drcLCQn3yySfyer2h/1VVVWnKlCmy2Wzyer3asGFDaDNVAAAAAEgUmh2AiezZsyf0uNeioiLV1tbK7XbriSee0JYtW0JXU7jd7tD+HkOhpKREpaWlampq0ooVK+Tz+SRJubm5amtr06xZs+K+KSoAAAAARIpmB2ASPZt/9ux/4fF49Oqrr+q6667TqVOntGfPnojGaW5uVnFxcWjz0ViaES0tLSouLtbOnTu1Y8cOuVwutbS06KGHHlJNTU1o75BDhw6pvLw86vEBAAAAYDDYswMwAZ/Pp/r6et1+++2hJ6ls2rQpdLuKdP7WFbfbrdzcXJWXl8vlcsnlcmn9+vW9xho9erR27drV67Xy8vI+H2Pb18am999/vwKBgJ544gm5XC55vV6tWbOm12anHo9Hs2bNknT+MbgAAAAAkEg0O4Ao9Dx69uzZswmd98KmxYUNjgu53e6wx3qEeyrKhY+1jVZf8xYVFfEEFgAAAACG4TYWIArjx4+XJJ04ccLgSgAAAAAA4dDsAKKQk5MjSaENOQEAAAAAyYdmBxCFmTNnKiUlRe+9957OnTtndDkAAAAAgD7Q7ACiMHbsWE2ZMkUNDQ365z//aXQ5AAAAAIA+0OwAorRo0SJJ55+G0tTUZHA1AAAAAICLjTh27Fh3XwccDof8fn/UA8aai1Wi62R98WXW9W3evFl1dXUaP368VqxYoZtvvlnp6el68MEHlZqaqurq6kHPgfAWLlyorq4uvfLKK0M6j1k/n0M9H+uLby5WrC85crFifcmRixXrS45crFhfcuRixfqSIxerRNY5oru7u89mh9/vl8PhiLqIWHONjY3Ky8tL2HysL7654bi+F154Qbt27ZIk5ebmavLkyfJ6vcrKytIHH3wQ9RyI3MKFCyUp4qbScPx8DuV8rC++OdYX3/lYX3xzrC++87G++OZYX3znY33xzbG++M4XS47bWIAYrV27Vq+88oruuecenTlzRn/5y1/U3t6uzs5Oo0sDAAAAgGEtzegCADObPn26pk+frl/96ldqbW3VkiVLlJJCDxEAAAAAjESzA4iTUaNGKS2Nf6UAAAAAwGj8ChoAAAAAAFgKzQ4AAAAAAGApNDsAAAAAAICl0OwAAAAAAACWQrMDAAAAAABYCs0OAAAAAABgKTQ7AAAAAACApdDsAAAAAAAAlkKzAwAAAAAAWMqI1tbWbqOLkCS/3y+Hw2F0GUOG9ZlbpOtbunSpUlJSVF1dnYCqhq+FCxcqGAzq97//fUTn8/k0N9ZnbqzP3FifubE+c2N95sb6jJcWrsBYiydHbjjnUlK4WCpRUlJSIn4vk/XzQo4cOXLkyJEjR44cuaHJ8TczII7S09MVCASMLsPyzp07p/T0dKPLAAAAAJCkaHYAcZSbm6vm5mb5fD6jS7Gsb7/9Vs3NzcrJyTG6FAAAAABJimYHEEfXX3+9JOnRRx/V4cOHDa7GelpbW1VWVqZz587phhtuMLocAAAAAEkqzegCACspLi7Wu+++qy+++EJLliyR0+lUVlaW0WVZQldXl06fPq1z584pLy9PK1asMLokAAAAAEmKZgcQR3a7XW+99ZZ2796turo6NTU1qaurK+pxgsFgTJudxprr6upSampqwuaLJWez2VRYWKgZM2aouLhYGRkZUc8LAAAAYHig2QHEWUZGhlatWqVVq1aZYpdiSWpsbFReXl7C5kt0DgAAAMDwwp4dAAAAAADAUmh2AAAAAAAAS6HZAQAAAAAALIVmBwAAAAAAsBSaHQAAAAAAwFJodgAAAAAAAEsZ0dra2m10EZL1HynJ+syN9Zkb6zM31mdurM/cWJ+5sT5zY33mxvqMlxauwFiLJ0eOHDly5MiRI0eOHDly5MiRMzLHbSwAAAAAAMBSaHYAAAAAAABL+X/JZ+89Vl6oDgAAAABJRU5ErkJggg==;" vertex="1" parent="1">
          <mxGeometry x="-170" y="20" width="1083" height="753" as="geometry" />
        </mxCell>
      </root>
    </mxGraphModel>
  </diagram>
</mxfile>
